<?xml version="1.0" standalone="no"?>
<!DOCTYPE svg PUBLIC "-//W3C//DTD SVG 20010904//EN"
 "http://www.w3.org/TR/2001/REC-SVG-20010904/DTD/svg10.dtd">
<svg version="1.0" xmlns="http://www.w3.org/2000/svg"
 width="600.000000pt" height="600.000000pt" viewBox="0 0 600.000000 600.000000"
 preserveAspectRatio="xMidYMid meet">

<g transform="translate(0.000000,600.000000) scale(0.100000,-0.100000)"
fill="#000000" stroke="none">
<path d="M2535 4786 c-34 -34 -32 -65 10 -143 33 -62 35 -71 35 -163 l0 -97
-127 -7 c-203 -10 -346 -26 -370 -42 -12 -7 -24 -22 -28 -33 -3 -11 -26 -31
-50 -46 -26 -15 -47 -35 -50 -48 -9 -43 -44 -375 -60 -567 -28 -360 -35 -571
-35 -994 l1 -421 -33 -2 c-18 -2 -86 -4 -151 -5 -96 -2 -114 -1 -100 10 11 8
54 12 123 12 l107 0 6 383 c10 586 57 1275 103 1512 19 96 34 121 82 143 l37
16 -50 7 c-27 4 -111 10 -186 14 -198 11 -201 10 -402 -178 -89 -83 -349 -324
-577 -536 -228 -212 -479 -446 -557 -519 l-143 -133 0 -470 c0 -424 2 -469 16
-469 10 0 14 -5 10 -15 -33 -86 -29 -245 7 -316 22 -42 25 -44 163 -96 259
-97 635 -189 929 -227 450 -59 1140 -112 1969 -151 354 -17 529 -18 459 -5
-101 20 -221 103 -273 189 l-25 40 -64 1 -64 0 6 60 7 60 -78 0 c-75 0 -78 -1
-95 -29 -9 -16 -37 -39 -61 -51 -43 -20 -54 -21 -401 -18 l-357 3 -38 43 c-21
24 -42 56 -45 73 l-7 29 -118 0 -117 0 -7 -30 c-3 -17 -23 -49 -45 -73 l-40
-42 -189 -3 c-155 -3 -196 -1 -227 12 -27 12 -71 16 -155 16 l-118 0 -33 32
c-63 63 -88 165 -89 349 0 123 12 188 51 267 43 89 55 92 271 91 95 -1 160 -4
145 -6 l-28 -4 26 -21 c24 -18 66 -87 65 -105 -1 -4 -12 14 -26 40 -14 26 -36
53 -51 60 -23 10 -28 8 -54 -21 -16 -17 -38 -64 -51 -104 -33 -105 -33 -320 0
-425 24 -77 63 -133 92 -133 10 0 30 15 45 33 l26 32 -15 -31 c-19 -40 -55
-56 -87 -40 -33 16 -86 125 -105 216 -20 94 -14 240 14 327 l19 62 -31 30
c-30 29 -84 56 -93 47 -3 -3 0 -21 7 -41 7 -20 9 -39 6 -42 -3 -4 -6 0 -6 8 0
8 -9 31 -19 52 l-19 37 48 0 c52 0 94 -24 105 -61 6 -19 9 -18 30 16 12 21 33
44 46 52 22 12 20 13 -26 7 -27 -4 -55 -11 -62 -16 -7 -5 -14 -5 -18 2 -3 6
-44 10 -95 10 l-88 0 -31 -35 c-106 -121 -100 -536 10 -646 17 -17 34 -19 142
-19 91 -1 127 -4 141 -15 16 -12 59 -15 218 -15 l198 0 30 27 c17 16 37 46 44
68 l14 40 130 3 130 3 12 -37 c7 -19 26 -51 42 -70 l30 -34 371 0 370 0 44 45
43 45 90 0 91 0 -7 -60 -7 -60 59 0 c59 0 59 0 87 -45 16 -25 49 -63 74 -85
196 -172 537 -131 676 81 l32 49 361 0 362 0 70 -70 c151 -151 343 -187 529
-101 75 35 165 118 208 190 l30 51 63 0 62 0 0 219 c0 121 -4 222 -9 225 -4 3
-11 30 -14 59 -3 30 -17 83 -31 119 -18 44 -26 83 -26 125 0 75 -16 93 -83 93
-34 0 -63 9 -109 34 -35 19 -82 39 -105 46 l-43 11 0 287 c0 168 -4 303 -11
324 -6 25 -19 43 -38 52 -15 8 -108 34 -207 56 -143 33 -192 41 -241 37 l-63
-5 0 163 c0 222 14 208 -212 215 -122 4 -163 8 -140 14 17 5 32 12 32 17 0 15
-92 79 -114 79 -16 0 -10 -7 22 -26 24 -14 42 -28 39 -30 -2 -2 -250 12 -551
31 -300 19 -550 34 -554 34 -4 -1 -40 -1 -80 0 l-72 1 39 35 c22 20 53 40 69
44 20 6 198 -7 533 -40 549 -53 540 -52 522 -41 -9 6 -13 100 -15 374 l-3 365
-43 86 c-36 70 -49 87 -72 92 -40 9 -77 -3 -100 -32 -28 -35 -25 -57 15 -137
l35 -68 0 -202 c0 -110 -3 -258 -7 -328 l-6 -128 -41 6 c-67 9 -86 14 -86 23
0 5 18 7 39 4 33 -5 41 -2 51 18 18 32 15 77 -6 100 -22 24 -38 24 -72 -1 -57
-41 -72 -37 -132 36 -98 119 -257 247 -389 313 -124 63 -270 104 -481 135 -86
13 -310 35 -356 36 -8 0 -13 40 -16 128 l-3 127 -45 85 -45 85 -47 3 c-40 3
-52 -1 -73 -22z m135 -98 l40 -82 0 -291 c0 -392 -9 -625 -25 -625 -22 0 -25
55 -26 469 -2 475 -12 443 -29 -94 -7 -203 -14 -372 -15 -373 -2 -2 -1 197 2
442 l6 447 -37 73 c-32 62 -36 78 -27 95 8 14 21 21 42 21 27 0 33 -6 69 -82z
m1666 -195 l39 -76 3 -286 c4 -324 -2 -431 -24 -431 -12 0 -14 46 -15 278 -2
415 -13 486 -22 147 -8 -299 -16 -429 -26 -419 -3 3 -4 154 -2 334 l3 329 -37
81 c-37 78 -38 81 -20 100 35 39 58 26 101 -57z m-1756 -143 c0 -6 -29 -10
-67 -9 -50 1 -61 3 -43 9 36 12 110 12 110 0z m460 -26 c58 -9 175 -33 259
-55 232 -58 429 -161 596 -312 l40 -37 -95 50 c-282 146 -560 238 -952 316
-122 24 -138 29 -138 47 0 19 4 20 93 13 50 -4 139 -14 197 -22z m-688 -34
c56 -65 144 -191 182 -262 34 -61 37 -72 34 -138 l-3 -71 -42 63 c-23 35 -53
76 -66 93 l-24 29 -175 -47 c-96 -26 -179 -47 -184 -46 -5 0 70 26 166 58
l175 57 -49 46 c-79 73 -149 111 -215 116 -67 4 -104 -16 -152 -80 l-31 -43 7
69 c9 90 10 92 56 110 90 36 195 6 289 -81 66 -61 74 -59 31 8 -45 70 -130
138 -176 140 -42 2 29 17 87 18 54 1 58 -1 90 -39z m-782 -159 l0 -50 -107
-87 c-60 -48 -109 -88 -109 -88 -1 -1 -10 -299 -20 -664 -10 -364 -21 -657
-25 -650 -3 7 -11 168 -18 358 -17 506 -32 864 -36 868 -2 2 -44 -28 -93 -68
l-89 -71 -6 -157 c-4 -86 -12 -363 -19 -614 -6 -252 -13 -456 -15 -454 -2 2
-10 203 -18 447 -8 244 -18 503 -21 576 l-6 132 -69 -56 c-38 -30 -69 -63 -69
-72 0 -9 -7 -234 -15 -501 -8 -267 -15 -525 -15 -574 0 -49 -2 -87 -4 -85 -2
2 -9 227 -15 499 -6 272 -14 523 -17 557 l-6 63 -53 -43 -54 -42 -1 -80 c-1
-44 -7 -278 -14 -520 l-12 -440 -7 270 c-5 149 -11 372 -15 497 l-7 227 -47
-42 -47 -42 -8 -435 c-7 -357 -9 -408 -14 -285 -4 83 -7 273 -8 423 -1 298 3
283 -60 230 l-31 -27 -8 -438 -9 -438 -1 428 c-2 471 2 441 -59 388 -22 -18
-23 -27 -31 -307 l-9 -289 -1 279 -2 279 -32 -25 -33 -26 -5 -298 -5 -299 -3
293 -2 293 -21 -11 c-11 -7 -22 -10 -24 -8 -2 2 112 103 253 225 141 122 460
397 707 612 248 215 451 391 453 391 1 0 2 -22 2 -49z m635 19 c15 -7 9 -9
-25 -10 -87 -1 -160 -54 -201 -145 -22 -47 -26 -33 -5 16 23 55 71 114 107
132 36 18 92 21 124 7z m-600 -1778 c-6 -6 -1274 -271 -1295 -271 -8 0 264 74
604 165 341 90 620 165 622 166 2 3 24 523 51 1243 l18 470 3 -884 c1 -486 0
-886 -3 -889z m1765 1623 c27 -14 77 -81 67 -91 -2 -3 -15 11 -27 31 -12 19
-30 40 -40 45 -11 6 -141 10 -319 10 -194 0 -301 4 -301 10 0 6 105 10 295 10
241 0 301 -3 325 -15z m362 -36 c70 -16 133 -31 140 -34 7 -2 32 -9 55 -15 29
-7 49 -20 64 -43 l22 -32 -29 27 c-32 28 -106 52 -296 93 -132 28 -148 30
-148 14 0 -8 39 -64 97 -138 2 -3 31 -10 66 -17 61 -12 62 -12 17 -13 -25 0
-57 5 -72 12 -29 13 -128 137 -128 160 0 33 6 33 212 -14z m-1331 1 c22 -12
69 -100 69 -129 0 -11 -10 -32 -22 -46 -19 -21 -55 -34 -197 -72 -128 -34
-178 -44 -190 -36 -12 8 -17 29 -19 85 -4 106 2 111 174 164 158 48 158 48
185 34z m946 -13 c17 -17 17 -18 -9 -4 -20 10 -88 14 -274 16 -137 1 -251 4
-253 7 -3 3 113 4 257 2 236 -3 263 -5 279 -21z m158 -41 c37 -27 17 -116 -26
-116 -18 0 -39 34 -39 65 0 31 21 65 39 65 4 0 16 -6 26 -14z m-229 -8 c5 -7
2 -9 -8 -5 -20 7 -38 -11 -38 -39 0 -26 24 -49 41 -38 8 4 9 3 5 -4 -16 -26
-56 5 -56 43 0 23 23 55 40 55 5 0 12 -5 16 -12z m144 -43 c0 -18 -7 -20 -83
-20 -45 0 -85 4 -89 9 -16 23 6 31 87 31 78 0 85 -2 85 -20z m778 -29 c7 -32
-8 -64 -30 -70 -43 -11 -66 58 -31 96 14 16 19 17 37 4 12 -7 23 -21 24 -30z
m-238 31 c0 -2 -9 -12 -20 -22 -24 -21 -27 -14 -4 9 15 15 24 20 24 13z m-755
-17 c4 -7 -73 -10 -224 -10 -147 0 -231 4 -231 10 0 6 81 10 224 10 139 0 227
-4 231 -10z m795 -19 c18 -5 21 -8 10 -12 -8 -3 -26 0 -40 8 -26 13 -12 16 30
4z m100 -1 c0 -5 -17 -9 -37 -9 l-38 2 35 7 c19 4 36 8 38 9 1 0 2 -3 2 -9z
m-242 -9 c8 -5 12 -17 10 -27 -6 -35 -98 -30 -98 5 0 10 3 21 7 24 9 10 65 8
81 -2z m122 -16 c19 -23 4 -45 -29 -45 -45 0 -61 10 -61 36 0 21 5 24 39 24
22 0 44 -6 51 -15z m118 -27 c3 -26 1 -28 -36 -28 -43 0 -68 20 -58 45 4 12
17 15 48 13 39 -3 43 -6 46 -30z m-881 -80 c68 -14 103 -26 103 -35 0 -16 -4
-16 -87 2 -37 9 -78 18 -90 20 -20 5 -23 1 -23 -26 0 -28 2 -30 28 -25 139 25
135 30 171 -199 16 -101 33 -181 40 -183 6 -2 11 -10 11 -17 0 -12 -105 -13
-332 -1 -66 3 -67 3 -53 -18 17 -23 19 -69 5 -95 -5 -10 -23 -24 -40 -31 l-31
-13 3 -294 c3 -341 -3 -323 105 -323 l63 0 0 360 0 359 23 13 c30 17 253 17
285 0 20 -12 22 -20 22 -102 0 -82 -9 -110 -24 -77 -5 10 -7 10 -12 0 -3 -7
-12 -13 -20 -13 -11 0 -14 -20 -14 -95 l0 -95 -92 -1 c-51 -1 -106 -5 -123 -8
-41 -10 131 -26 180 -17 l35 7 0 -56 c0 -57 3 -61 53 -57 15 2 17 -9 17 -101
0 -67 -4 -107 -12 -115 -9 -9 -75 -12 -235 -12 -210 0 -224 1 -243 20 -19 19
-20 33 -20 315 l0 295 -23 9 c-34 13 -51 39 -51 76 0 38 17 63 52 76 33 13 18
29 -29 29 l-39 0 2 178 3 177 48 3 c41 3 47 6 47 25 0 13 7 33 16 45 13 20 24
22 96 22 45 0 127 -10 185 -22z m174 -26 c-14 -26 17 -359 35 -389 32 -52 43
-54 343 -60 155 -3 281 -9 281 -13 0 -4 -124 -10 -275 -13 -299 -8 -316 -6
-363 46 -34 36 -41 83 -42 255 0 135 8 192 26 192 2 0 0 -8 -5 -18z m-618 -9
c11 -6 9 -1373 -2 -1373 -9 0 -18 69 -24 175 -1 33 -5 11 -11 -62 l-9 -113
-88 0 -89 0 0 679 0 679 28 10 c15 6 36 13 47 15 21 5 135 -3 148 -10z m992
-29 c127 -9 235 -20 240 -26 7 -7 -11 -8 -55 -4 -36 3 -137 10 -225 16 -216
14 -275 20 -275 31 0 5 19 6 43 4 23 -3 146 -12 272 -21z m-1808 -36 c-3 -7
-5 -2 -5 12 0 14 2 19 5 13 2 -7 2 -19 0 -25z m2470 -10 c47 -3 44 -5 -132
-70 -99 -36 -188 -69 -197 -73 -17 -7 -27 15 -44 103 l-6 32 93 2 c52 1 74 3
49 5 -92 6 -150 15 -150 21 0 4 76 2 169 -5 94 -6 191 -13 218 -15z m-325
-396 c-13 -2 -26 -1 -29 2 -5 4 -33 226 -47 361 -3 28 19 -42 48 -155 l52
-205 -24 -3z m-139 392 l46 -7 8 -71 c4 -39 8 -75 8 -80 0 -4 -16 -14 -35 -22
-428 -165 -427 -164 -474 -143 -41 19 -53 62 -58 202 l-5 127 232 0 c128 0
253 -3 278 -6z m-2022 -262 c-6 -122 -12 -377 -12 -569 -2 -291 -3 -330 -11
-238 -17 211 7 1054 29 1031 3 -2 0 -103 -6 -224z m2779 58 l0 -171 -62 3 -61
3 -33 150 c-18 83 -33 158 -33 168 -1 15 10 17 94 17 l95 0 0 -170z m138 158
c7 -7 12 -22 12 -34 0 -19 -6 -23 -37 -26 l-38 -3 -3 -132 c-2 -125 -4 -133
-22 -133 -19 0 -20 8 -20 170 l0 170 48 0 c26 0 53 -5 60 -12z m-2330 -35 c-3
-14 -40 -25 -198 -55 -107 -20 -202 -37 -210 -37 -13 1 378 105 403 108 5 1 7
-7 5 -16z m-431 -99 c-3 -3 -12 -4 -19 -1 -8 3 -5 6 6 6 11 1 17 -2 13 -5z
m111 -96 c19 -19 17 -462 -2 -477 -8 -7 -43 -13 -78 -14 l-63 -2 -3 226 c-3
268 -11 251 129 278 3 1 10 -4 17 -11z m2281 -92 c-2 -2 -82 -7 -176 -11 -124
-5 -173 -4 -173 4 0 8 55 11 177 11 97 0 174 -2 172 -4z m713 -81 c133 -30
197 -50 205 -62 10 -13 13 -132 13 -530 l0 -513 -435 0 -435 0 0 520 c0 545 2
565 44 576 25 6 361 51 393 53 12 1 108 -19 215 -44z m-999 19 c174 -4 317 -8
317 -9 0 -2 -7 -16 -15 -31 -12 -23 -15 -81 -16 -294 l-2 -265 -9 155 c-5 85
-11 156 -12 157 -1 2 -130 18 -287 37 -322 38 -317 42 31 21 135 -8 248 -15
252 -15 3 0 4 9 1 19 -6 25 9 23 -527 68 -455 37 -491 43 -460 73 5 4 173 14
374 21 200 7 353 16 340 20 -14 4 -178 13 -365 19 -187 7 -343 14 -347 17 -5
2 -8 9 -8 15 0 8 60 9 208 5 114 -4 350 -10 525 -13z m-723 -319 l0 -135 -55
0 -55 0 0 135 0 135 55 0 55 0 0 -135z m367 109 c-3 -3 -12 -4 -19 -1 -8 3 -5
6 6 6 11 1 17 -2 13 -5z m641 -523 l3 -83 -42 35 c-23 20 -61 45 -85 56 -48
23 -181 47 -315 57 -174 13 -85 24 174 22 l262 -3 3 -84z m-723 50 c67 -30
132 -106 183 -213 l47 -97 236 -1 237 0 7 -36 c3 -20 4 -38 2 -41 -3 -2 -105
-8 -228 -14 -123 -5 -242 -10 -264 -12 -22 -1 59 -6 180 -10 252 -9 335 -16
335 -28 0 -5 -132 -9 -294 -9 -335 0 -328 -2 -361 87 -24 64 -76 145 -111 172
-93 73 -199 66 -261 -16 -58 -80 -117 -235 -158 -420 -22 -97 -24 -102 -19
-43 14 153 73 380 129 490 87 171 220 246 340 191z m485 -81 l105 -7 -145 -2
c-99 -1 -150 -5 -158 -13 -7 -7 -12 -43 -13 -87 l-1 -76 -13 47 c-7 26 -27 72
-44 103 l-31 55 97 -6 c54 -3 145 -9 203 -14z m1315 -10 c17 -11 23 -20 15
-20 -17 0 -71 39 -55 40 6 0 24 -9 40 -20z m-1135 -39 c15 -29 13 -116 -4
-130 -9 -8 -65 -11 -177 -9 l-164 3 -3 63 c-2 38 2 69 9 78 9 11 46 14 170 14
146 0 159 -1 169 -19z m1338 -13 c17 -17 16 -123 -2 -137 -9 -8 -57 -11 -147
-9 l-134 3 -3 64 c-2 35 -1 70 2 77 7 19 266 20 284 2z m-2386 -80 c-10 -10
-139 -14 -550 -18 -358 -3 -504 -7 -437 -12 55 -5 210 -8 345 -8 314 0 620
-11 620 -22 0 -4 -318 -7 -707 -6 l-708 3 -3 23 c-8 55 -51 52 730 52 578 0
720 -3 710 -12z m337 -2 c9 -11 3 -15 -36 -21 -71 -10 -132 -43 -190 -102 -89
-90 -138 -219 -154 -403 l-8 -95 4 115 c6 176 47 292 136 393 50 58 99 90 165
111 62 19 69 19 83 2z m70 -79 c6 -8 18 -30 26 -51 l16 -38 -23 9 c-13 4 -54
8 -93 8 -58 -1 -79 -5 -124 -30 -76 -42 -135 -120 -167 -220 -12 -38 -13 -38
-13 -10 0 17 10 61 24 98 52 149 170 244 306 246 20 1 42 -5 48 -12z m-2135
-54 c33 -65 56 -148 56 -199 l0 -42 108 -7 c121 -7 151 -13 76 -14 l-52 -1
-12 -81 c-14 -96 -43 -196 -65 -224 -14 -18 -14 -16 0 13 21 44 45 170 45 237
l0 54 -62 3 -63 3 -7 85 c-4 53 -16 111 -32 153 -14 37 -23 67 -21 67 3 0 15
-21 29 -47z m4115 15 c6 -18 13 -52 17 -75 l7 -43 -42 0 c-41 0 -41 0 -41 38
0 20 -3 54 -6 75 -6 36 -6 37 24 37 26 0 32 -5 41 -32z m-2865 -23 c42 -22 59
-25 154 -25 59 0 113 -4 120 -9 8 -5 12 -21 10 -37 l-3 -29 -185 0 -185 0 0
35 c0 33 2 35 40 40 l40 6 -42 14 c-60 19 -115 1 -168 -54 -78 -81 -87 -211
-21 -308 19 -29 21 -37 10 -52 -11 -16 -13 -16 -18 2 -4 11 -18 23 -33 26 -31
8 -44 -1 -22 -17 8 -7 31 -24 50 -39 l34 -28 -235 0 c-135 0 -251 5 -273 11
-48 13 -112 70 -139 122 -62 122 -12 288 104 346 41 20 57 21 379 21 l336 0
47 -25z m-1409 -47 c15 -22 14 -23 -7 -28 -42 -10 -63 -72 -63 -185 0 -115 21
-175 65 -185 l24 -6 -22 -22 c-12 -12 -28 -19 -36 -16 -58 22 -83 274 -40 397
25 71 50 85 79 45z m-305 -8 c9 -17 8 -20 -10 -20 -15 0 -27 -13 -42 -46 -28
-65 -23 -219 9 -261 11 -16 28 -27 37 -27 12 1 13 -2 6 -17 -16 -28 -30 -32
-49 -14 -57 50 -62 325 -8 393 15 18 45 14 57 -8z m-789 -7 c13 -15 12 -15 -8
-3 -17 11 -24 11 -37 1 -49 -41 -67 -239 -30 -335 24 -63 45 -77 76 -51 l23
19 -21 -23 c-30 -32 -57 -21 -85 37 -30 63 -38 200 -16 266 16 45 16 46 -11
66 -14 12 -34 19 -44 17 -10 -3 -18 -1 -18 4 0 19 59 9 74 -13 l15 -22 21 27
c25 31 42 34 61 10z m3370 -13 c46 -13 115 -72 139 -121 15 -28 20 -58 20
-118 0 -72 -2 -79 -19 -74 -21 5 -35 -20 -25 -49 4 -13 12 -18 25 -15 16 4 19
0 19 -34 0 -73 -65 -161 -142 -193 -122 -51 -259 36 -304 192 -21 71 -14 191
14 254 40 92 134 167 207 168 17 0 46 -5 66 -10z m-2562 -41 c6 -18 11 -75 11
-128 0 -94 -12 -140 -37 -148 -17 -6 -27 35 -12 53 6 8 9 17 5 21 -3 3 -6 1
-6 -6 0 -29 -18 2 -23 41 -8 62 2 130 19 124 17 -6 18 6 3 21 -14 14 -2 53 16
53 7 0 18 -14 24 -31z m313 4 c7 -16 12 -80 12 -148 0 -123 -10 -165 -40 -165
-21 0 -36 43 -18 53 19 11 18 28 -1 21 -20 -8 -28 31 -23 116 4 72 13 94 28
70 6 -9 10 -10 10 -3 0 7 -7 16 -15 21 -13 7 -14 14 -6 35 13 35 38 34 53 0z
m1321 -180 c-90 -104 -105 -120 -98 -98 16 48 96 259 102 269 4 6 15 -18 26
-52 l18 -63 -48 -56z m341 108 l16 -53 -73 -83 c-59 -68 -72 -89 -72 -116 l0
-34 -182 -3 -183 -2 0 30 0 30 177 2 177 3 27 70 c15 39 28 76 28 83 1 9 -23
12 -86 13 -77 1 -82 2 -43 10 25 4 68 8 95 8 l51 1 19 55 c10 31 22 52 26 48
4 -4 14 -32 23 -62z m-2987 31 c-32 -6 -50 -123 -26 -176 6 -13 20 -26 30 -29
16 -4 17 -9 8 -36 -14 -40 -29 -49 -46 -26 -16 23 -17 43 -1 27 17 -17 26 -15
39 11 11 19 10 20 -3 9 -30 -24 -43 12 -43 118 0 106 13 142 43 118 13 -12 13
-13 -1 -16z m198 -8 c16 -40 20 -170 6 -193 -11 -17 -34 -4 -27 15 3 7 1 16
-4 19 -11 7 -14 98 -3 108 3 4 7 19 8 33 1 23 -1 23 -12 8 -32 -44 -27 -160 9
-196 15 -15 17 -23 9 -31 -8 -8 -16 -6 -29 6 -14 15 -17 36 -17 126 0 77 4
113 14 124 20 25 29 21 46 -19z m4659 6 c423 -6 773 -13 778 -16 10 -7 11
-341 0 -348 -7 -4 -1089 -23 -1615 -28 -198 -1 -240 1 -248 13 -15 24 -11 365
4 381 10 10 49 13 163 11 82 -2 495 -8 918 -13z m-4836 -91 c2 -78 -10 -117
-28 -89 -6 10 -6 16 0 18 6 2 10 8 10 13 0 6 -4 7 -10 4 -6 -4 -10 13 -10 45
0 32 4 49 10 45 6 -3 10 -2 10 4 0 5 -5 11 -12 13 -6 2 -8 10 -4 17 18 29 31
2 34 -70z m642 -86 c1 -16 7 -46 15 -68 8 -22 11 -43 7 -46 -4 -4 -64 -9 -133
-11 l-126 -5 19 49 c10 26 18 59 18 72 0 29 13 33 123 35 l77 1 0 -27z m2427
-95 c-3 -8 -6 -5 -6 6 -1 11 2 17 5 13 3 -3 4 -12 1 -19z m-2096 -63 c-11 -25
-26 -45 -34 -45 -17 0 -39 25 -55 63 -17 40 -15 43 9 13 27 -34 54 -33 76 4
25 43 28 20 4 -35z m86 43 c-3 -8 -6 -5 -6 6 -1 11 2 17 5 13 3 -3 4 -12 1
-19z m-937 -28 c11 -7 8 -9 -15 -9 -16 1 -43 5 -60 9 -27 7 -26 8 15 9 25 0
52 -4 60 -9z m916 -55 c-10 -25 -21 -45 -26 -45 -4 0 0 18 11 40 10 21 19 45
19 51 0 7 3 9 6 6 4 -4 -1 -27 -10 -52z m2091 8 c-3 -10 -5 -4 -5 12 0 17 2
24 5 18 2 -7 2 -21 0 -30z m10 -45 c-3 -8 -6 -5 -6 6 -1 11 2 17 5 13 3 -3 4
-12 1 -19z m669 -55 c-25 -50 -98 -112 -156 -135 -120 -46 -245 -20 -331 69
l-44 45 50 -35 c65 -45 115 -61 196 -61 86 0 150 31 199 97 29 39 40 47 68 47
32 0 32 0 18 -27z"/>
<path d="M2636 4605 c8 -37 14 -45 14 -19 0 10 -5 26 -10 34 -8 11 -9 7 -4
-15z"/>
<path d="M2217 3911 c-70 -21 -134 -44 -142 -51 -11 -9 -15 -34 -15 -91 0 -43
4 -80 8 -83 14 -9 343 82 363 100 25 23 24 70 -4 119 -30 53 -51 54 -210 6z
m142 14 c-3 -2 -58 -24 -123 -49 -65 -25 -120 -47 -123 -49 -2 -3 -8 -27 -13
-54 l-8 -48 -1 51 c-1 39 4 55 19 69 23 21 269 100 249 80z"/>
<path d="M3462 3898 c-17 -17 -15 -73 3 -88 13 -11 14 -10 9 4 -5 12 -2 15 12
10 18 -5 18 -5 0 10 -19 15 -19 16 0 37 19 22 19 22 -4 10 -22 -12 -23 -11
-12 8 12 24 10 27 -8 9z"/>
<path d="M4142 3848 c-20 -20 -12 -88 10 -88 6 0 4 7 -3 17 -13 15 -12 15 11
3 l25 -13 -19 22 c-19 21 -19 22 0 36 19 15 19 15 0 8 -15 -5 -18 -3 -13 10 8
20 5 21 -11 5z"/>
<path d="M3789 3793 c-13 -15 -12 -15 11 -3 34 17 36 20 18 20 -9 0 -22 -7
-29 -17z"/>
<path d="M3900 3791 c0 -4 11 -6 25 -3 14 2 25 6 25 8 0 2 -11 4 -25 4 -14 0
-25 -4 -25 -9z"/>
<path d="M4020 3781 c0 -4 11 -6 25 -3 14 2 25 6 25 8 0 2 -11 4 -25 4 -14 0
-25 -4 -25 -9z"/>
<path d="M2957 3673 c-15 -15 -6 -43 13 -43 11 0 23 -6 26 -13 3 -9 17 -12 47
-8 39 6 42 9 45 39 l3 32 -64 0 c-35 0 -67 -3 -70 -7z"/>
<path d="M3148 3613 l-28 -4 0 -178 0 -178 102 -7 c55 -3 103 -4 106 -1 8 7
-49 349 -60 363 -10 11 -62 14 -120 5z"/>
<path d="M2895 3603 c-22 -3 -43 -10 -47 -16 -4 -7 -7 -75 -7 -152 l2 -140 13
129 c8 75 19 135 26 143 7 7 31 19 53 27 40 15 34 16 -40 9z"/>
<path d="M3023 3593 c-23 -4 -23 -7 -23 -158 l0 -154 -27 -15 c-27 -15 -25
-15 45 -16 l72 0 0 175 0 175 -22 -1 c-13 -1 -33 -4 -45 -6z"/>
<path d="M2878 3203 c-32 -38 -27 -82 13 -103 21 -12 21 -11 5 11 -18 27 -21
62 -6 90 13 24 8 25 -12 2z"/>
<path d="M3128 3153 c-14 -4 -18 -15 -18 -59 0 -54 0 -54 28 -48 41 10 42 12
42 65 0 51 -4 55 -52 42z"/>
<path d="M3270 3110 c0 -43 3 -50 20 -50 17 0 20 7 20 50 0 43 -3 50 -20 50
-17 0 -20 -7 -20 -50z"/>
<path d="M3380 3095 c0 -30 5 -55 10 -55 6 0 10 25 10 55 0 30 -4 55 -10 55
-5 0 -10 -25 -10 -55z"/>
<path d="M3167 3041 c-73 -16 -48 -21 94 -20 105 0 137 3 119 10 -33 14 -167
20 -213 10z"/>
<path d="M3110 2904 c0 -105 0 -106 23 -100 12 3 28 6 35 6 9 0 12 27 12 100
l0 100 -35 0 -35 0 0 -106z"/>
<path d="M3272 2913 c3 -84 6 -98 21 -101 15 -3 17 7 17 97 0 95 -1 101 -20
101 -20 0 -21 -5 -18 -97z"/>
<path d="M3110 2716 l0 -57 33 3 c31 3 32 5 35 51 2 33 -1 47 -10 47 -7 0 -23
3 -35 6 -22 6 -23 4 -23 -50z"/>
<path d="M3270 2715 c0 -38 3 -45 20 -45 17 0 20 7 20 45 0 38 -3 45 -20 45
-17 0 -20 -7 -20 -45z"/>
<path d="M3170 2651 c-84 -9 -36 -21 88 -21 59 0 114 5 122 10 11 7 6 10 -20
10 -19 0 -57 2 -85 4 -27 2 -75 1 -105 -3z"/>
<path d="M3110 2550 l0 -70 34 0 c19 0 37 4 40 8 2 4 2 36 -1 70 l-6 62 -33 0
-34 0 0 -70z"/>
<path d="M3380 2555 c0 -37 4 -65 10 -65 6 0 10 28 10 65 0 37 -4 65 -10 65
-6 0 -10 -28 -10 -65z"/>
<path d="M3270 2550 c0 -53 2 -60 20 -60 18 0 20 7 20 60 0 53 -2 60 -20 60
-18 0 -20 -7 -20 -60z"/>
<path d="M2727 3601 c14 -21 23 -49 24 -75 1 -61 17 -16 18 50 1 51 1 52 -32
56 l-33 4 23 -35z"/>
<path d="M2630 3375 c0 -9 5 -15 11 -13 6 2 11 8 11 13 0 5 -5 11 -11 13 -6 2
-11 -4 -11 -13z"/>
<path d="M2670 3376 c0 -9 7 -16 16 -16 9 0 14 5 12 12 -6 18 -28 21 -28 4z"/>
<path d="M2585 3371 c-6 -11 9 -23 19 -14 9 9 7 23 -3 23 -6 0 -12 -4 -16 -9z"/>
<path d="M2712 3368 c6 -18 28 -21 28 -4 0 9 -7 16 -16 16 -9 0 -14 -5 -12
-12z"/>
<path d="M2607 3344 c-8 -8 1 -24 14 -24 5 0 9 7 9 15 0 15 -12 20 -23 9z"/>
<path d="M2650 3334 c0 -9 5 -14 12 -12 18 6 21 28 4 28 -9 0 -16 -7 -16 -16z"/>
<path d="M2692 3338 c6 -18 28 -21 28 -4 0 9 -7 16 -16 16 -9 0 -14 -5 -12
-12z"/>
<path d="M2630 3305 c0 -9 5 -15 11 -13 6 2 11 8 11 13 0 5 -5 11 -11 13 -6 2
-11 -4 -11 -13z"/>
<path d="M2676 3313 c-11 -11 -6 -23 9 -23 8 0 15 4 15 9 0 13 -16 22 -24 14z"/>
<path d="M2587 3303 c-12 -11 -8 -23 8 -23 8 0 15 7 15 15 0 16 -12 20 -23 8z"/>
<path d="M2712 3298 c6 -18 28 -21 28 -4 0 9 -7 16 -16 16 -9 0 -14 -5 -12
-12z"/>
<path d="M2607 3273 c-12 -11 -8 -23 8 -23 8 0 15 7 15 15 0 16 -12 20 -23 8z"/>
<path d="M2650 3265 c0 -9 5 -15 11 -13 6 2 11 8 11 13 0 5 -5 11 -11 13 -6 2
-11 -4 -11 -13z"/>
<path d="M2690 3266 c0 -9 7 -16 16 -16 9 0 14 5 12 12 -6 18 -28 21 -28 4z"/>
<path d="M2587 3233 c-12 -11 -8 -23 8 -23 8 0 15 7 15 15 0 16 -12 20 -23 8z"/>
<path d="M2630 3230 c0 -5 5 -10 10 -10 6 0 10 5 10 10 0 6 -4 10 -10 10 -5 0
-10 -4 -10 -10z"/>
<path d="M2672 3229 c2 -6 8 -10 13 -10 5 0 11 4 13 10 2 6 -4 11 -13 11 -9 0
-15 -5 -13 -11z"/>
<path d="M2712 3228 c6 -18 28 -21 28 -4 0 9 -7 16 -16 16 -9 0 -14 -5 -12
-12z"/>
<path d="M2607 3203 c-12 -11 -8 -23 8 -23 8 0 15 7 15 15 0 16 -12 20 -23 8z"/>
<path d="M2650 3195 c0 -9 5 -15 11 -13 6 2 11 8 11 13 0 5 -5 11 -11 13 -6 2
-11 -4 -11 -13z"/>
<path d="M2696 3203 c-11 -11 -6 -23 9 -23 8 0 15 4 15 9 0 13 -16 22 -24 14z"/>
<path d="M2587 3163 c-12 -11 -8 -23 8 -23 8 0 15 7 15 15 0 16 -12 20 -23 8z"/>
<path d="M2630 3156 c0 -8 -7 -16 -15 -20 -8 -3 -15 -10 -15 -16 0 -5 7 -10
15 -10 8 0 15 6 15 14 0 8 7 17 16 20 8 3 12 10 9 16 -9 15 -25 12 -25 -4z"/>
<path d="M2672 3159 c2 -6 8 -10 13 -10 5 0 11 4 13 10 2 6 -4 11 -13 11 -9 0
-15 -5 -13 -11z"/>
<path d="M2716 3162 c-3 -6 -1 -14 5 -17 15 -10 25 3 12 16 -7 7 -13 7 -17 1z"/>
<path d="M2650 3125 c0 -9 5 -15 11 -13 6 2 11 8 11 13 0 5 -5 11 -11 13 -6 2
-11 -4 -11 -13z"/>
<path d="M2696 3133 c-11 -11 -6 -23 9 -23 8 0 15 4 15 9 0 13 -16 22 -24 14z"/>
<path d="M2587 3093 c-12 -11 -8 -23 8 -23 8 0 15 7 15 15 0 16 -12 20 -23 8z"/>
<path d="M2630 3085 c0 -9 5 -15 11 -13 6 2 11 8 11 13 0 5 -5 11 -11 13 -6 2
-11 -4 -11 -13z"/>
<path d="M2670 3084 c0 -9 5 -14 12 -12 18 6 21 28 4 28 -9 0 -16 -7 -16 -16z"/>
<path d="M2716 3093 c-11 -11 -6 -23 9 -23 8 0 15 4 15 9 0 13 -16 22 -24 14z"/>
<path d="M2650 3056 c0 -9 7 -16 16 -16 9 0 14 5 12 12 -6 18 -28 21 -28 4z"/>
<path d="M2605 3051 c-6 -11 9 -23 19 -14 9 9 7 23 -3 23 -6 0 -12 -4 -16 -9z"/>
<path d="M2692 3049 c2 -6 8 -10 13 -10 5 0 11 4 13 10 2 6 -4 11 -13 11 -9 0
-15 -5 -13 -11z"/>
<path d="M2630 3015 c0 -9 5 -15 11 -13 6 2 11 8 11 13 0 5 -5 11 -11 13 -6 2
-11 -4 -11 -13z"/>
<path d="M2666 3013 c-3 -10 -9 -24 -12 -30 -3 -8 1 -13 11 -13 11 0 15 5 11
15 -3 9 0 15 10 15 9 0 14 5 12 12 -7 19 -25 20 -32 1z"/>
<path d="M2716 3023 c-11 -11 -6 -23 9 -23 8 0 15 4 15 9 0 13 -16 22 -24 14z"/>
<path d="M2582 3009 c2 -6 8 -10 13 -10 5 0 11 4 13 10 2 6 -4 11 -13 11 -9 0
-15 -5 -13 -11z"/>
<path d="M2605 2980 c-3 -6 1 -13 9 -16 9 -3 16 -12 16 -20 0 -16 16 -19 25
-4 3 6 -1 13 -9 16 -9 3 -16 12 -16 20 0 16 -16 19 -25 4z"/>
<path d="M2692 2978 c6 -18 28 -21 28 -4 0 9 -7 16 -16 16 -9 0 -14 -5 -12
-12z"/>
<path d="M2670 2946 c0 -9 7 -16 16 -16 9 0 14 5 12 12 -6 18 -28 21 -28 4z"/>
<path d="M2582 2939 c2 -6 8 -10 13 -10 5 0 11 4 13 10 2 6 -4 11 -13 11 -9 0
-15 -5 -13 -11z"/>
<path d="M2712 2938 c6 -18 28 -21 28 -4 0 9 -7 16 -16 16 -9 0 -14 -5 -12
-12z"/>
<path d="M2605 2910 c-3 -6 1 -13 9 -16 9 -3 16 -12 16 -20 0 -16 16 -19 25
-4 3 6 -1 13 -9 16 -9 3 -16 12 -16 20 0 16 -16 19 -25 4z"/>
<path d="M2652 2909 c2 -6 8 -10 13 -10 5 0 11 4 13 10 2 6 -4 11 -13 11 -9 0
-15 -5 -13 -11z"/>
<path d="M2692 2908 c6 -18 28 -21 28 -4 0 9 -7 16 -16 16 -9 0 -14 -5 -12
-12z"/>
<path d="M2676 2883 c-11 -11 -6 -23 9 -23 8 0 15 4 15 9 0 13 -16 22 -24 14z"/>
<path d="M2585 2869 c-4 -6 -5 -13 -2 -16 7 -7 27 6 27 18 0 12 -17 12 -25 -2z"/>
<path d="M2712 2868 c6 -18 28 -21 28 -4 0 9 -7 16 -16 16 -9 0 -14 -5 -12
-12z"/>
<path d="M2607 2844 c-8 -8 1 -24 14 -24 5 0 9 7 9 15 0 15 -12 20 -23 9z"/>
<path d="M2646 2833 c-3 -10 -9 -24 -12 -30 -3 -7 -1 -13 5 -13 6 0 11 6 11
14 0 8 7 17 16 20 8 3 12 10 9 16 -9 15 -22 12 -29 -7z"/>
<path d="M2686 2833 c-3 -10 -9 -24 -12 -30 -3 -8 1 -13 11 -13 11 0 15 5 11
15 -3 9 0 15 9 15 8 0 15 7 15 15 0 21 -26 19 -34 -2z"/>
<path d="M2587 2803 c-12 -11 -8 -23 8 -23 8 0 15 7 15 15 0 16 -12 20 -23 8z"/>
<path d="M2712 2798 c6 -18 28 -21 28 -4 0 9 -7 16 -16 16 -9 0 -14 -5 -12
-12z"/>
<path d="M2607 2773 c-12 -11 -8 -23 8 -23 8 0 15 7 15 15 0 16 -12 20 -23 8z"/>
<path d="M2650 2765 c0 -9 5 -15 11 -13 6 2 11 8 11 13 0 5 -5 11 -11 13 -6 2
-11 -4 -11 -13z"/>
<path d="M2696 2773 c-11 -11 -6 -23 9 -23 8 0 15 4 15 9 0 13 -16 22 -24 14z"/>
<path d="M2587 2733 c-12 -11 -8 -23 8 -23 8 0 15 7 15 15 0 16 -12 20 -23 8z"/>
<path d="M2630 2726 c0 -8 -7 -16 -15 -20 -8 -3 -15 -10 -15 -16 0 -5 7 -10
15 -10 8 0 15 7 15 15 0 8 5 15 10 15 6 0 10 -7 10 -15 0 -17 16 -20 25 -5 3
6 -1 13 -9 16 -9 3 -16 12 -16 20 0 8 -4 14 -10 14 -5 0 -10 -6 -10 -14z"/>
<path d="M2672 2729 c2 -6 8 -10 13 -10 5 0 11 4 13 10 2 6 -4 11 -13 11 -9 0
-15 -5 -13 -11z"/>
<path d="M2717 2734 c-8 -8 1 -24 14 -24 5 0 9 7 9 15 0 15 -12 20 -23 9z"/>
<path d="M2696 2703 c-11 -11 -6 -23 9 -23 8 0 15 4 15 9 0 13 -16 22 -24 14z"/>
<path d="M2587 2663 c-12 -11 -8 -23 8 -23 8 0 15 7 15 15 0 16 -12 20 -23 8z"/>
<path d="M2630 2655 c0 -9 5 -15 11 -13 6 2 11 8 11 13 0 5 -5 11 -11 13 -6 2
-11 -4 -11 -13z"/>
<path d="M2672 2659 c2 -6 8 -10 13 -10 5 0 11 4 13 10 2 6 -4 11 -13 11 -9 0
-15 -5 -13 -11z"/>
<path d="M2716 2662 c-3 -6 -1 -14 5 -17 15 -10 25 3 12 16 -7 7 -13 7 -17 1z"/>
<path d="M2650 2626 c0 -9 7 -16 16 -16 9 0 14 5 12 12 -6 18 -28 21 -28 4z"/>
<path d="M2602 2619 c2 -6 8 -10 13 -10 5 0 11 4 13 10 2 6 -4 11 -13 11 -9 0
-15 -5 -13 -11z"/>
<path d="M2692 2619 c2 -6 8 -10 13 -10 5 0 11 4 13 10 2 6 -4 11 -13 11 -9 0
-15 -5 -13 -11z"/>
<path d="M2586 2593 c-11 -11 -6 -23 9 -23 8 0 15 4 15 9 0 13 -16 22 -24 14z"/>
<path d="M2630 2585 c0 -9 5 -15 11 -13 6 2 11 8 11 13 0 5 -5 11 -11 13 -6 2
-11 -4 -11 -13z"/>
<path d="M2666 2583 c-3 -10 -9 -24 -12 -30 -3 -8 1 -13 11 -13 11 0 15 5 11
15 -3 9 0 15 9 15 8 0 15 7 15 15 0 21 -26 19 -34 -2z"/>
<path d="M2716 2593 c-11 -11 -6 -23 9 -23 8 0 15 4 15 9 0 13 -16 22 -24 14z"/>
<path d="M2605 2551 c-6 -11 9 -23 19 -14 9 9 7 23 -3 23 -6 0 -12 -4 -16 -9z"/>
<path d="M2692 2549 c2 -6 8 -10 13 -10 5 0 11 4 13 10 2 6 -4 11 -13 11 -9 0
-15 -5 -13 -11z"/>
<path d="M2123 3283 c-48 -9 -53 -32 -53 -248 0 -110 4 -206 9 -214 6 -10 20
-11 52 -6 84 14 79 -2 79 250 l0 225 -32 -1 c-18 -1 -43 -4 -55 -6z m10 -43
c-22 -9 -23 -15 -25 -142 l-2 -133 -3 129 c-4 132 2 157 36 155 11 0 9 -3 -6
-9z"/>
<path d="M4771 3114 c-107 -14 -178 -28 -183 -36 -4 -7 -8 -244 -8 -525 l0
-513 405 0 405 0 -2 507 -3 507 -180 43 c-99 23 -198 42 -220 41 -22 0 -118
-11 -214 -24z m416 -50 l173 -39 0 -472 0 -473 -37 0 -38 0 0 447 c0 292 -3
448 -10 448 -7 0 -10 -156 -10 -448 l0 -447 -37 0 -38 0 0 450 c0 299 -3 450
-10 450 -7 0 -10 -149 -8 -450 l3 -450 -40 0 -40 0 3 447 c1 294 -1 450 -8
457 -7 7 -10 -136 -10 -447 l0 -457 -37 0 -38 0 0 447 c0 292 -3 448 -10 448
-7 0 -10 -156 -10 -448 l0 -447 -37 0 -38 0 0 457 c0 311 -3 454 -10 447 -7
-7 -9 -163 -8 -457 l3 -447 -40 0 -40 0 3 450 c2 301 -1 450 -8 450 -7 0 -10
-151 -10 -450 l0 -450 -37 0 -38 0 0 447 c0 292 -3 448 -10 448 -7 0 -10 -156
-10 -448 l0 -447 -42 0 -43 0 0 489 0 490 58 7 c31 4 113 15 182 24 69 10 132
17 140 16 8 -2 93 -20 187 -42z"/>
<path d="M4825 3051 l-110 -17 139 -7 c77 -4 198 -7 270 -6 l131 1 -110 24
c-128 27 -170 28 -320 5z"/>
<path d="M4650 2535 c0 -362 2 -415 15 -415 13 0 15 53 15 415 0 362 -2 415
-15 415 -13 0 -15 -53 -15 -415z"/>
<path d="M4750 2535 c0 -270 3 -415 10 -415 7 0 10 145 10 415 0 270 -3 415
-10 415 -7 0 -10 -145 -10 -415z"/>
<path d="M4842 2540 c2 -265 7 -410 13 -410 6 0 11 145 13 410 2 362 0 410
-13 410 -13 0 -15 -48 -13 -410z"/>
<path d="M4940 2535 c0 -270 3 -415 10 -415 7 0 10 145 10 415 0 270 -3 415
-10 415 -7 0 -10 -145 -10 -415z"/>
<path d="M5030 2535 c0 -270 3 -415 10 -415 7 0 10 145 10 415 0 270 -3 415
-10 415 -7 0 -10 -145 -10 -415z"/>
<path d="M5122 2540 c2 -265 7 -410 13 -410 6 0 11 145 13 410 2 362 0 410
-13 410 -13 0 -15 -48 -13 -410z"/>
<path d="M5220 2535 c0 -270 3 -415 10 -415 7 0 10 145 10 415 0 270 -3 415
-10 415 -7 0 -10 -145 -10 -415z"/>
<path d="M5310 2535 c0 -270 3 -415 10 -415 7 0 10 145 10 415 0 270 -3 415
-10 415 -7 0 -10 -145 -10 -415z"/>
<path d="M3601 2427 c-48 -18 -106 -71 -137 -123 -36 -60 -26 -64 16 -6 19 25
55 60 78 77 37 26 53 30 106 30 52 0 69 -5 102 -28 21 -15 49 -42 62 -60 13
-17 29 -41 37 -52 27 -38 15 1 -17 55 -59 98 -158 141 -247 107z"/>
<path d="M4152 2308 c-16 -16 -15 -73 2 -87 9 -8 54 -11 132 -9 l119 3 3 44
c2 28 -1 47 -10 52 -21 14 -232 11 -246 -3z m238 -43 c0 -25 0 -25 -87 -23
-71 1 -77 3 -33 6 l55 5 -55 17 -55 18 88 1 c86 1 87 1 87 -24z"/>
<path d="M5504 2286 c-3 -8 -4 -29 -2 -48 l3 -33 130 0 130 0 0 45 0 45 -128
3 c-103 2 -128 0 -133 -12z m146 -29 l-65 -21 50 -7 c44 -5 40 -6 -32 -7 l-83
-2 0 30 0 30 98 -1 97 0 -65 -22z"/>
<path d="M2128 2060 c-44 -39 -15 -39 32 0 25 21 30 30 18 30 -10 0 -32 -13
-50 -30z"/>
<path d="M2183 2061 c-45 -33 -80 -83 -89 -130 -10 -46 11 -38 30 12 19 50 73
127 88 127 6 0 3 -9 -7 -20 -18 -20 -17 -20 46 -20 56 1 68 4 99 30 l34 30
-66 0 c-37 0 -70 -4 -73 -10 -3 -5 -11 -10 -16 -10 -6 0 -7 5 -4 10 10 16 1
12 -42 -19z"/>
<path d="M2413 2064 c-18 -14 -33 -30 -33 -35 0 -5 30 -9 68 -9 62 1 70 3 106
35 l39 35 -74 0 c-64 0 -78 -4 -106 -26z"/>
<path d="M2626 2081 c2 -3 -8 -17 -23 -33 l-27 -28 26 0 c14 0 32 7 39 17 8 9
28 25 44 35 l30 19 -47 -3 c-25 -2 -44 -5 -42 -7z"/>
<path d="M2363 2055 c-54 -43 -110 -155 -78 -155 8 0 19 18 26 39 6 22 29 62
50 90 21 28 38 51 36 51 -1 0 -16 -11 -34 -25z"/>
<path d="M2573 2055 c-54 -43 -110 -155 -78 -155 8 0 19 17 25 39 6 22 28 63
50 90 22 28 39 51 38 51 -2 0 -17 -11 -35 -25z"/>
<path d="M2040 1880 c0 -6 97 -10 270 -10 173 0 270 4 270 10 0 6 -97 10 -270
10 -173 0 -270 -4 -270 -10z"/>
<path d="M2086 1823 c11 -47 41 -97 76 -129 59 -54 74 -60 31 -13 -46 52 -67
89 -78 137 -4 18 -13 32 -21 32 -11 0 -13 -7 -8 -27z"/>
<path d="M2276 1823 c16 -68 47 -112 109 -158 l40 -29 -42 45 c-42 44 -82 118
-83 152 0 9 -7 17 -15 17 -12 0 -14 -7 -9 -27z"/>
<path d="M2480 1841 c0 -19 25 -78 48 -113 13 -20 42 -49 65 -63 l42 -27 -42
43 c-42 44 -82 118 -83 152 0 9 -7 17 -15 17 -8 0 -15 -4 -15 -9z"/>
<path d="M2132 1675 c21 -19 45 -35 53 -35 9 0 -1 14 -24 35 -21 19 -45 35
-52 35 -8 0 3 -16 23 -35z"/>
<path d="M2220 1675 c32 -33 37 -35 102 -35 l68 0 -39 35 c-35 32 -43 35 -102
35 l-63 0 34 -35z"/>
<path d="M2410 1675 c33 -34 36 -35 112 -35 l78 0 -39 35 c-37 33 -42 35 -112
35 l-73 0 34 -35z"/>
<path d="M3657 1973 c-14 -13 -6 -24 15 -21 27 4 36 28 11 28 -11 0 -23 -3
-26 -7z"/>
<path d="M3773 1965 c-7 -19 22 -48 42 -42 17 6 11 29 -12 44 -21 14 -23 14
-30 -2z"/>
<path d="M3555 1899 c-4 -11 -4 -23 0 -27 7 -7 25 17 25 36 0 20 -18 14 -25
-9z"/>
<path d="M3625 1902 c-17 -10 -43 -43 -60 -73 -26 -48 -30 -64 -30 -136 0 -44
-3 -79 -7 -76 -11 6 -9 -29 2 -47 8 -12 10 -10 10 9 0 23 1 22 23 -9 35 -52
73 -75 122 -75 69 0 124 53 140 135 l6 35 -22 -43 c-25 -49 -81 -92 -120 -92
-66 0 -129 81 -137 175 -6 69 11 117 54 155 65 57 153 31 202 -60 24 -45 24
-45 17 -10 -22 107 -118 161 -200 112z"/>
<path d="M3865 1860 c-11 -17 4 -60 21 -60 8 0 17 7 21 16 11 29 -27 69 -42
44z"/>
<path d="M3500 1750 c0 -16 5 -30 10 -30 6 0 10 14 10 30 0 17 -4 30 -10 30
-5 0 -10 -13 -10 -30z"/>
<path d="M3842 1548 c-15 -15 -15 -35 -2 -43 15 -9 40 14 40 36 0 21 -20 25
-38 7z"/>
<path d="M3600 1491 c0 -13 29 -35 37 -28 7 8 -15 37 -28 37 -5 0 -9 -4 -9 -9z"/>
<path d="M3727 1464 c-11 -12 3 -24 29 -24 16 0 24 5 22 13 -5 13 -40 22 -51
11z"/>
<path d="M4736 1913 c-504 -2 -713 -6 -723 -14 -10 -9 -13 -46 -12 -153 l1
-141 18 100 c23 120 32 143 62 149 13 3 370 17 793 31 786 26 930 32 700 31
-71 0 -449 -2 -839 -3z"/>
<path d="M4293 1703 c-17 -6 -17 -115 -1 -131 7 -7 39 -12 74 -12 77 0 94 14
94 75 0 61 -17 75 -93 74 -34 0 -68 -3 -74 -6z m137 -68 l0 -56 -62 3 -63 3
-3 53 -3 52 65 0 66 0 0 -55z"/>
<path d="M4320 1633 l1 -38 16 26 c9 15 31 31 52 36 l36 10 -52 2 -53 1 0 -37z"/>
<path d="M5550 1703 c-23 -9 -30 -24 -30 -64 0 -50 17 -61 92 -57 l63 3 3 50
c3 38 -1 52 -14 62 -18 13 -86 16 -114 6z m115 -63 l0 -45 -60 0 -60 0 -3 48
-3 48 63 -3 63 -3 0 -45z"/>
<path d="M5590 1663 c8 -3 25 -17 37 -31 l23 -27 0 33 c0 31 -2 32 -37 31 -21
0 -31 -3 -23 -6z"/>
<path d="M4195 1404 c-85 -130 -208 -199 -380 -214 -88 -7 -87 -7 55 -8 185
-2 1060 15 1250 24 l144 7 -65 16 c-86 22 -168 72 -235 144 l-53 57 -349 0
-350 0 -17 -26z"/>
</g>
</svg>
