<?xml version="1.0" encoding="UTF-8"?>
<svg xmlns="http://www.w3.org/2000/svg" xmlns:xlink="http://www.w3.org/1999/xlink" width="50px" height="50px" viewBox="0 0 50 50" version="1.1">
<g id="surface1">
<path style=" stroke:none;fill-rule:nonzero;fill:rgb(0%,0%,0%);fill-opacity:1;" d="M 21.125 10.117188 C 20.839844 10.398438 20.859375 10.660156 21.207031 11.308594 C 21.484375 11.824219 21.5 11.898438 21.5 12.667969 L 21.5 13.476562 L 20.441406 13.535156 C 18.75 13.617188 17.558594 13.75 17.359375 13.882812 C 17.257812 13.941406 17.160156 14.066406 17.125 14.160156 C 17.101562 14.25 16.910156 14.417969 16.707031 14.542969 C 16.492188 14.667969 16.316406 14.832031 16.292969 14.941406 C 16.214844 15.300781 15.925781 18.066406 15.792969 19.667969 C 15.558594 22.667969 15.5 24.425781 15.5 27.949219 L 15.507812 31.457031 L 15.234375 31.476562 C 15.082031 31.492188 14.515625 31.507812 13.976562 31.515625 C 13.175781 31.535156 13.023438 31.523438 13.140625 31.433594 C 13.234375 31.367188 13.589844 31.332031 14.167969 31.332031 L 15.058594 31.332031 L 15.109375 28.140625 C 15.191406 23.257812 15.582031 17.515625 15.964844 15.542969 C 16.125 14.742188 16.25 14.535156 16.648438 14.351562 L 16.957031 14.214844 L 16.542969 14.160156 C 16.316406 14.125 15.617188 14.074219 14.992188 14.042969 C 13.339844 13.949219 13.316406 13.957031 11.640625 15.523438 C 10.898438 16.214844 8.734375 18.226562 6.832031 19.992188 C 4.933594 21.757812 2.839844 23.707031 2.191406 24.316406 L 1 25.425781 L 1 29.339844 C 1 32.875 1.015625 33.25 1.132812 33.25 C 1.214844 33.25 1.25 33.292969 1.214844 33.375 C 0.941406 34.089844 0.976562 35.417969 1.273438 36.007812 C 1.457031 36.359375 1.484375 36.375 2.632812 36.808594 C 4.792969 37.617188 7.925781 38.382812 10.375 38.699219 C 14.125 39.191406 19.875 39.632812 26.785156 39.957031 C 29.734375 40.101562 31.191406 40.109375 30.609375 40 C 29.765625 39.832031 28.765625 39.140625 28.332031 38.425781 L 28.125 38.089844 L 27.589844 38.082031 L 27.058594 38.082031 L 27.109375 37.582031 L 27.167969 37.082031 L 26.515625 37.082031 C 25.890625 37.082031 25.867188 37.089844 25.726562 37.324219 C 25.648438 37.457031 25.417969 37.648438 25.214844 37.75 C 24.859375 37.917969 24.765625 37.925781 21.875 37.898438 L 18.898438 37.875 L 18.582031 37.515625 C 18.410156 37.316406 18.234375 37.050781 18.207031 36.910156 L 18.148438 36.667969 L 16.191406 36.667969 L 16.132812 36.917969 C 16.109375 37.058594 15.941406 37.324219 15.757812 37.523438 L 15.425781 37.875 L 13.851562 37.898438 C 12.558594 37.925781 12.214844 37.910156 11.957031 37.800781 C 11.734375 37.699219 11.367188 37.667969 10.667969 37.667969 L 9.683594 37.667969 L 9.410156 37.398438 C 8.882812 36.875 8.675781 36.023438 8.667969 34.492188 C 8.667969 33.464844 8.765625 32.925781 9.089844 32.265625 C 9.449219 31.523438 9.550781 31.5 11.351562 31.507812 C 12.140625 31.515625 12.683594 31.542969 12.558594 31.558594 L 12.324219 31.589844 L 12.542969 31.765625 C 12.742188 31.917969 13.089844 32.492188 13.082031 32.640625 C 13.074219 32.675781 12.984375 32.523438 12.867188 32.308594 C 12.75 32.089844 12.566406 31.867188 12.441406 31.808594 C 12.25 31.726562 12.207031 31.742188 11.992188 31.984375 C 11.859375 32.125 11.675781 32.515625 11.566406 32.851562 C 11.292969 33.726562 11.292969 35.515625 11.566406 36.390625 C 11.765625 37.035156 12.089844 37.5 12.332031 37.5 C 12.417969 37.5 12.582031 37.375 12.707031 37.226562 L 12.925781 36.957031 L 12.800781 37.214844 C 12.640625 37.550781 12.339844 37.683594 12.074219 37.550781 C 11.800781 37.417969 11.359375 36.507812 11.199219 35.75 C 11.035156 34.964844 11.082031 33.75 11.316406 33.023438 L 11.476562 32.507812 L 11.214844 32.257812 C 10.964844 32.015625 10.515625 31.792969 10.441406 31.867188 C 10.417969 31.890625 10.441406 32.042969 10.5 32.207031 C 10.558594 32.375 10.574219 32.535156 10.550781 32.558594 C 10.523438 32.589844 10.5 32.558594 10.5 32.492188 C 10.5 32.425781 10.425781 32.234375 10.339844 32.058594 L 10.183594 31.75 L 10.582031 31.75 C 11.015625 31.75 11.367188 31.949219 11.457031 32.257812 C 11.507812 32.417969 11.535156 32.410156 11.707031 32.125 C 11.808594 31.949219 11.984375 31.757812 12.089844 31.691406 C 12.273438 31.589844 12.257812 31.582031 11.875 31.632812 C 11.648438 31.667969 11.417969 31.726562 11.359375 31.765625 C 11.300781 31.808594 11.242188 31.808594 11.207031 31.75 C 11.183594 31.699219 10.839844 31.667969 10.417969 31.667969 L 9.683594 31.667969 L 9.425781 31.957031 C 8.542969 32.964844 8.589844 36.425781 9.507812 37.339844 C 9.648438 37.484375 9.792969 37.5 10.691406 37.5 C 11.449219 37.507812 11.75 37.535156 11.867188 37.625 C 12 37.726562 12.359375 37.75 13.683594 37.75 L 15.332031 37.75 L 15.582031 37.523438 C 15.726562 37.390625 15.890625 37.140625 15.949219 36.957031 L 16.066406 36.625 L 17.148438 36.601562 L 18.234375 36.574219 L 18.332031 36.882812 C 18.390625 37.042969 18.550781 37.308594 18.683594 37.464844 L 18.933594 37.75 L 25.109375 37.75 L 25.476562 37.375 L 25.832031 37 L 27.339844 37 L 27.285156 37.5 L 27.226562 38 L 27.714844 38 C 28.207031 38 28.207031 38 28.441406 38.375 C 28.574219 38.582031 28.851562 38.898438 29.058594 39.082031 C 30.691406 40.515625 33.535156 40.175781 34.691406 38.410156 L 34.957031 38 L 40.984375 38 L 41.566406 38.582031 C 42.824219 39.839844 44.425781 40.140625 45.976562 39.425781 C 46.601562 39.132812 47.351562 38.441406 47.707031 37.839844 L 47.957031 37.417969 L 49 37.417969 L 49 35.589844 C 49 34.582031 48.964844 33.742188 48.925781 33.714844 C 48.890625 33.691406 48.832031 33.464844 48.808594 33.226562 C 48.785156 32.976562 48.667969 32.535156 48.550781 32.234375 C 48.398438 31.867188 48.332031 31.542969 48.332031 31.191406 C 48.332031 30.566406 48.199219 30.417969 47.640625 30.417969 C 47.359375 30.417969 47.117188 30.339844 46.734375 30.132812 C 46.441406 29.976562 46.050781 29.808594 45.859375 29.75 L 45.5 29.660156 L 45.5 27.265625 C 45.5 25.867188 45.464844 24.742188 45.410156 24.566406 C 45.359375 24.359375 45.25 24.207031 45.089844 24.132812 C 44.964844 24.066406 44.191406 23.851562 43.367188 23.667969 C 42.175781 23.390625 41.765625 23.324219 41.359375 23.359375 L 40.832031 23.398438 L 40.832031 22.042969 C 40.832031 20.191406 40.949219 20.308594 39.066406 20.25 C 38.050781 20.214844 37.707031 20.183594 37.898438 20.132812 C 38.042969 20.089844 38.167969 20.035156 38.167969 19.992188 C 38.167969 19.867188 37.398438 19.332031 37.214844 19.332031 C 37.082031 19.332031 37.132812 19.390625 37.398438 19.550781 C 37.601562 19.667969 37.75 19.785156 37.726562 19.800781 C 37.707031 19.816406 35.640625 19.699219 33.132812 19.542969 C 30.632812 19.382812 28.550781 19.257812 28.515625 19.257812 C 28.484375 19.265625 28.183594 19.265625 27.851562 19.257812 L 27.25 19.25 L 27.574219 18.957031 C 27.757812 18.792969 28.015625 18.625 28.148438 18.589844 C 28.316406 18.542969 29.800781 18.648438 32.589844 18.925781 C 37.167969 19.367188 37.089844 19.359375 36.941406 19.265625 C 36.867188 19.214844 36.832031 18.433594 36.816406 16.148438 L 36.792969 13.109375 L 36.433594 12.390625 C 36.132812 11.808594 36.023438 11.667969 35.832031 11.625 C 35.5 11.550781 35.191406 11.648438 35 11.890625 C 34.765625 12.183594 34.792969 12.367188 35.125 13.035156 L 35.417969 13.601562 L 35.417969 15.285156 C 35.417969 16.199219 35.390625 17.433594 35.359375 18.015625 L 35.308594 19.082031 L 34.964844 19.035156 C 34.410156 18.957031 34.25 18.917969 34.25 18.839844 C 34.25 18.800781 34.398438 18.785156 34.574219 18.808594 C 34.851562 18.851562 34.917969 18.824219 35 18.660156 C 35.148438 18.390625 35.125 18.015625 34.949219 17.824219 C 34.765625 17.625 34.632812 17.625 34.351562 17.832031 C 33.875 18.175781 33.75 18.140625 33.25 17.535156 C 32.433594 16.542969 31.109375 15.476562 30.007812 14.925781 C 28.976562 14.398438 27.757812 14.058594 26 13.800781 C 25.285156 13.691406 23.417969 13.507812 23.035156 13.5 C 22.964844 13.5 22.925781 13.167969 22.898438 12.433594 L 22.875 11.375 L 22.5 10.667969 L 22.125 9.957031 L 21.734375 9.933594 C 21.398438 9.910156 21.300781 9.941406 21.125 10.117188 Z M 22.25 10.933594 L 22.582031 11.617188 L 22.582031 14.042969 C 22.582031 17.308594 22.507812 19.25 22.375 19.25 C 22.191406 19.25 22.167969 18.792969 22.160156 15.339844 C 22.140625 11.382812 22.058594 11.648438 21.917969 16.125 C 21.859375 17.816406 21.800781 19.226562 21.792969 19.234375 C 21.773438 19.25 21.785156 17.589844 21.808594 15.550781 L 21.859375 11.824219 L 21.550781 11.214844 C 21.285156 10.699219 21.25 10.566406 21.324219 10.425781 C 21.390625 10.308594 21.5 10.25 21.675781 10.25 C 21.898438 10.25 21.949219 10.300781 22.25 10.933594 Z M 36.132812 12.558594 L 36.457031 13.191406 L 36.484375 15.574219 C 36.515625 18.273438 36.464844 19.167969 36.285156 19.167969 C 36.183594 19.167969 36.167969 18.785156 36.160156 16.851562 C 36.140625 13.390625 36.050781 12.800781 35.976562 15.625 C 35.910156 18.117188 35.839844 19.199219 35.757812 19.117188 C 35.734375 19.089844 35.726562 17.832031 35.742188 16.332031 L 35.765625 13.589844 L 35.457031 12.917969 C 35.148438 12.265625 35.140625 12.242188 35.292969 12.082031 C 35.582031 11.757812 35.773438 11.867188 36.132812 12.558594 Z M 21.5 13.75 C 21.5 13.800781 21.257812 13.832031 20.941406 13.824219 C 20.523438 13.816406 20.433594 13.800781 20.582031 13.75 C 20.882812 13.648438 21.5 13.648438 21.5 13.75 Z M 25.332031 13.964844 C 25.816406 14.042969 26.792969 14.242188 27.492188 14.425781 C 29.425781 14.910156 31.066406 15.765625 32.457031 17.023438 L 32.792969 17.332031 L 32 16.917969 C 29.648438 15.699219 27.332031 14.933594 24.066406 14.285156 C 23.050781 14.082031 22.917969 14.042969 22.917969 13.890625 C 22.917969 13.734375 22.949219 13.726562 23.691406 13.785156 C 24.109375 13.816406 24.851562 13.898438 25.332031 13.964844 Z M 19.601562 14.25 C 20.066406 14.792969 20.800781 15.839844 21.117188 16.433594 C 21.398438 16.941406 21.425781 17.035156 21.398438 17.582031 L 21.375 18.175781 L 21.023438 17.648438 C 20.832031 17.359375 20.582031 17.015625 20.476562 16.875 L 20.273438 16.632812 L 18.816406 17.023438 C 18.015625 17.242188 17.324219 17.417969 17.285156 17.410156 C 17.242188 17.410156 17.867188 17.191406 18.667969 16.925781 L 20.125 16.449219 L 19.714844 16.066406 C 19.058594 15.457031 18.476562 15.140625 17.925781 15.101562 C 17.367188 15.066406 17.058594 15.234375 16.660156 15.765625 L 16.398438 16.125 L 16.457031 15.550781 C 16.535156 14.800781 16.542969 14.785156 16.925781 14.632812 C 17.675781 14.332031 18.550781 14.582031 19.332031 15.308594 C 19.882812 15.816406 19.949219 15.800781 19.589844 15.242188 C 19.214844 14.660156 18.507812 14.089844 18.125 14.074219 C 17.773438 14.058594 18.367188 13.933594 18.851562 13.925781 C 19.300781 13.917969 19.332031 13.933594 19.601562 14.25 Z M 13.082031 15.574219 L 13.082031 15.992188 L 12.191406 16.714844 C 11.691406 17.117188 11.285156 17.449219 11.285156 17.449219 C 11.273438 17.457031 11.199219 19.941406 11.117188 22.984375 C 11.035156 26.015625 10.941406 28.457031 10.910156 28.398438 C 10.882812 28.339844 10.816406 27 10.757812 25.417969 C 10.617188 21.199219 10.492188 18.214844 10.457031 18.183594 C 10.441406 18.167969 10.089844 18.417969 9.683594 18.75 L 8.941406 19.339844 L 8.890625 20.648438 C 8.859375 21.367188 8.792969 23.675781 8.734375 25.765625 C 8.683594 27.867188 8.625 29.566406 8.609375 29.550781 C 8.589844 29.535156 8.523438 27.859375 8.457031 25.824219 C 8.390625 23.792969 8.308594 21.632812 8.285156 21.023438 L 8.234375 19.925781 L 7.660156 20.390625 C 7.339844 20.640625 7.082031 20.917969 7.082031 20.992188 C 7.082031 21.066406 7.023438 22.941406 6.957031 25.167969 C 6.890625 27.390625 6.832031 29.542969 6.832031 29.949219 C 6.832031 30.359375 6.816406 30.675781 6.800781 30.660156 C 6.785156 30.640625 6.726562 28.765625 6.675781 26.5 C 6.625 24.234375 6.558594 22.140625 6.535156 21.859375 L 6.484375 21.332031 L 6.042969 21.691406 L 5.589844 22.042969 L 5.582031 22.707031 C 5.574219 23.074219 5.523438 25.023438 5.464844 27.042969 L 5.367188 30.707031 L 5.308594 28.457031 C 5.265625 27.214844 5.214844 25.359375 5.183594 24.316406 L 5.125 22.425781 L 4.734375 22.773438 L 4.339844 23.125 L 4.273438 26.75 C 4.214844 29.726562 4.199219 30.148438 4.160156 29.125 C 4.125 28.433594 4.101562 26.851562 4.089844 25.601562 C 4.082031 23.117188 4.117188 23.242188 3.589844 23.683594 L 3.332031 23.910156 L 3.265625 27.558594 L 3.191406 31.207031 L 3.183594 27.640625 C 3.167969 23.714844 3.199219 23.964844 2.691406 24.410156 C 2.507812 24.558594 2.5 24.632812 2.433594 26.964844 L 2.359375 29.375 L 2.351562 27.050781 L 2.332031 24.726562 L 2.066406 24.933594 L 1.792969 25.148438 L 1.75 27.632812 L 1.707031 30.125 L 1.683594 27.683594 L 1.667969 25.242188 L 1.492188 25.332031 C 1.398438 25.390625 1.308594 25.417969 1.292969 25.398438 C 1.273438 25.382812 2.226562 24.542969 3.398438 23.523438 C 4.574219 22.507812 7.234375 20.214844 9.292969 18.425781 C 11.359375 16.632812 13.050781 15.167969 13.066406 15.167969 C 13.074219 15.167969 13.082031 15.351562 13.082031 15.574219 Z M 18.375 15.417969 C 18.5 15.476562 18.449219 15.492188 18.167969 15.5 C 17.441406 15.507812 16.832031 15.949219 16.492188 16.707031 C 16.308594 17.101562 16.273438 16.984375 16.449219 16.574219 C 16.640625 16.117188 17.042969 15.625 17.339844 15.476562 C 17.640625 15.324219 18.109375 15.300781 18.375 15.417969 Z M 13.375 30.234375 C 13.324219 30.285156 2.757812 32.492188 2.582031 32.492188 C 2.515625 32.492188 4.785156 31.875 7.617188 31.117188 C 10.457031 30.367188 12.785156 29.742188 12.800781 29.734375 C 12.816406 29.707031 13 25.375 13.226562 19.375 L 13.375 15.457031 L 13.398438 22.824219 C 13.410156 26.875 13.398438 30.207031 13.375 30.234375 Z M 28.082031 16.707031 C 28.308594 16.824219 28.726562 17.382812 28.640625 17.464844 C 28.625 17.492188 28.515625 17.375 28.417969 17.207031 C 28.316406 17.050781 28.167969 16.875 28.082031 16.832031 C 27.992188 16.785156 26.910156 16.75 25.425781 16.75 C 23.808594 16.75 22.917969 16.714844 22.917969 16.667969 C 22.917969 16.617188 23.792969 16.582031 25.375 16.582031 C 27.382812 16.582031 27.882812 16.609375 28.082031 16.707031 Z M 31.101562 17.007812 C 31.683594 17.140625 32.207031 17.265625 32.265625 17.292969 C 32.324219 17.308594 32.535156 17.367188 32.726562 17.417969 C 32.964844 17.476562 33.132812 17.582031 33.257812 17.773438 L 33.441406 18.042969 L 33.199219 17.816406 C 32.933594 17.582031 32.316406 17.382812 30.734375 17.042969 C 29.632812 16.808594 29.5 16.792969 29.5 16.925781 C 29.5 16.992188 29.824219 17.457031 30.308594 18.074219 C 30.324219 18.101562 30.566406 18.160156 30.859375 18.214844 C 31.367188 18.316406 31.375 18.316406 31 18.324219 C 30.792969 18.324219 30.523438 18.285156 30.398438 18.226562 C 30.160156 18.117188 29.332031 17.082031 29.332031 16.890625 C 29.332031 16.617188 29.382812 16.617188 31.101562 17.007812 Z M 20.007812 17 C 20.191406 17.101562 20.582031 17.832031 20.582031 18.074219 C 20.582031 18.167969 20.5 18.339844 20.398438 18.457031 C 20.242188 18.632812 19.941406 18.742188 18.757812 19.058594 C 17.691406 19.339844 17.273438 19.425781 17.175781 19.359375 C 17.074219 19.292969 17.035156 19.117188 17.015625 18.648438 C 16.984375 17.765625 17.035156 17.726562 18.464844 17.285156 C 19.785156 16.882812 19.785156 16.882812 20.007812 17 Z M 27.890625 17.109375 C 28.035156 17.25 28.035156 17.257812 27.816406 17.140625 C 27.648438 17.058594 27.082031 17.023438 25.535156 17.007812 C 24.390625 17 23.441406 16.976562 23.425781 16.949219 C 23.398438 16.925781 24.367188 16.917969 25.566406 16.933594 C 27.535156 16.957031 27.757812 16.976562 27.890625 17.109375 Z M 29.207031 17.449219 C 29.515625 17.675781 29.351562 18.417969 28.992188 18.417969 C 28.839844 18.417969 28.667969 18.132812 28.667969 17.875 C 28.667969 17.617188 28.839844 17.332031 28.992188 17.332031 C 29.023438 17.332031 29.125 17.382812 29.207031 17.449219 Z M 27.300781 17.515625 C 27.339844 17.574219 27.316406 17.589844 27.234375 17.558594 C 27.066406 17.5 26.917969 17.648438 26.917969 17.882812 C 26.917969 18.101562 27.117188 18.292969 27.257812 18.199219 C 27.324219 18.167969 27.332031 18.175781 27.300781 18.234375 C 27.167969 18.449219 26.832031 18.191406 26.832031 17.875 C 26.832031 17.683594 27.023438 17.417969 27.167969 17.417969 C 27.207031 17.417969 27.265625 17.457031 27.300781 17.515625 Z M 28.5 17.875 C 28.5 18.023438 28.441406 18.042969 27.808594 18.042969 C 27.433594 18.042969 27.101562 18.007812 27.066406 17.964844 C 26.933594 17.773438 27.117188 17.707031 27.792969 17.707031 C 28.441406 17.707031 28.5 17.726562 28.5 17.875 Z M 34.984375 18.117188 C 35.042969 18.382812 34.917969 18.648438 34.734375 18.699219 C 34.375 18.792969 34.183594 18.214844 34.476562 17.898438 C 34.589844 17.765625 34.632812 17.757812 34.785156 17.867188 C 34.882812 17.925781 34.976562 18.042969 34.984375 18.117188 Z M 33 17.859375 C 33 17.875 32.925781 17.957031 32.832031 18.042969 C 32.632812 18.214844 32.609375 18.160156 32.800781 17.964844 C 32.925781 17.839844 33 17.800781 33 17.859375 Z M 26.707031 18 C 26.742188 18.058594 26.101562 18.082031 24.839844 18.082031 C 23.617188 18.082031 22.917969 18.050781 22.917969 18 C 22.917969 17.949219 23.589844 17.917969 24.785156 17.917969 C 25.941406 17.917969 26.675781 17.949219 26.707031 18 Z M 33.332031 18.160156 C 33.484375 18.199219 33.507812 18.226562 33.417969 18.257812 C 33.351562 18.285156 33.199219 18.257812 33.082031 18.191406 C 32.867188 18.082031 32.984375 18.058594 33.332031 18.160156 Z M 34.167969 18.167969 C 34.167969 18.207031 34.023438 18.242188 33.859375 18.242188 L 33.542969 18.226562 L 33.832031 18.167969 C 33.992188 18.132812 34.132812 18.101562 34.148438 18.089844 C 34.160156 18.089844 34.167969 18.117188 34.167969 18.167969 Z M 32.148438 18.242188 C 32.214844 18.285156 32.25 18.382812 32.234375 18.464844 C 32.183594 18.757812 31.417969 18.714844 31.417969 18.425781 C 31.417969 18.339844 31.441406 18.25 31.476562 18.226562 C 31.550781 18.140625 32.015625 18.160156 32.148438 18.242188 Z M 33.167969 18.375 C 33.324219 18.566406 33.199219 18.75 32.925781 18.75 C 32.550781 18.75 32.417969 18.667969 32.417969 18.449219 C 32.417969 18.273438 32.457031 18.25 32.742188 18.25 C 32.925781 18.25 33.109375 18.300781 33.167969 18.375 Z M 34.148438 18.601562 C 34.175781 18.816406 34.160156 18.832031 33.851562 18.832031 C 33.492188 18.832031 33.285156 18.667969 33.367188 18.457031 C 33.398438 18.359375 33.507812 18.332031 33.765625 18.351562 C 34.089844 18.375 34.125 18.398438 34.148438 18.601562 Z M 26.808594 19.265625 C 27.375 19.382812 27.667969 19.484375 27.667969 19.558594 C 27.667969 19.691406 27.632812 19.691406 26.941406 19.542969 C 26.632812 19.464844 26.292969 19.390625 26.191406 19.375 C 26.023438 19.332031 26 19.367188 26 19.589844 C 26 19.824219 26.015625 19.839844 26.234375 19.800781 C 27.390625 19.589844 27.359375 19.550781 27.660156 21.457031 C 27.792969 22.300781 27.933594 22.964844 27.992188 22.984375 C 28.042969 23 28.082031 23.066406 28.082031 23.125 C 28.082031 23.226562 27.207031 23.234375 25.316406 23.132812 C 24.765625 23.109375 24.757812 23.109375 24.875 23.285156 C 25.015625 23.476562 25.035156 23.859375 24.917969 24.074219 C 24.875 24.160156 24.726562 24.273438 24.582031 24.332031 L 24.324219 24.441406 L 24.351562 26.890625 C 24.375 29.734375 24.324219 29.582031 25.226562 29.582031 L 25.75 29.582031 L 25.75 23.589844 L 25.941406 23.484375 C 26.191406 23.339844 28.050781 23.339844 28.316406 23.484375 C 28.484375 23.582031 28.5 23.648438 28.5 24.332031 C 28.5 25.015625 28.425781 25.25 28.300781 24.976562 C 28.257812 24.890625 28.242188 24.890625 28.199219 24.976562 C 28.175781 25.035156 28.101562 25.082031 28.035156 25.082031 C 27.941406 25.082031 27.917969 25.25 27.917969 25.875 L 27.917969 26.667969 L 27.148438 26.675781 C 26.726562 26.683594 26.265625 26.714844 26.125 26.742188 C 25.785156 26.824219 27.214844 26.957031 27.625 26.882812 L 27.917969 26.824219 L 27.917969 27.292969 C 27.917969 27.765625 27.941406 27.800781 28.359375 27.765625 C 28.484375 27.75 28.5 27.839844 28.5 28.609375 C 28.5 29.167969 28.464844 29.5 28.398438 29.566406 C 28.324219 29.640625 27.773438 29.667969 26.441406 29.667969 C 24.691406 29.667969 24.574219 29.660156 24.417969 29.5 C 24.257812 29.339844 24.25 29.226562 24.25 26.875 L 24.25 24.417969 L 24.058594 24.339844 C 23.773438 24.234375 23.632812 24.015625 23.632812 23.707031 C 23.632812 23.390625 23.773438 23.183594 24.066406 23.074219 C 24.339844 22.964844 24.214844 22.832031 23.824219 22.832031 L 23.5 22.832031 L 23.515625 21.351562 L 23.542969 19.875 L 23.941406 19.851562 C 24.285156 19.824219 24.332031 19.800781 24.332031 19.640625 C 24.332031 19.535156 24.390625 19.367188 24.464844 19.265625 C 24.574219 19.101562 24.667969 19.082031 25.265625 19.082031 C 25.640625 19.082031 26.324219 19.167969 26.808594 19.265625 Z M 28.257812 19.484375 C 28.140625 19.699219 28.398438 22.476562 28.550781 22.726562 C 28.816406 23.160156 28.910156 23.175781 31.410156 23.226562 C 32.699219 23.25 33.75 23.300781 33.75 23.332031 C 33.75 23.367188 32.714844 23.417969 31.457031 23.441406 C 28.964844 23.507812 28.824219 23.492188 28.433594 23.058594 C 28.148438 22.757812 28.089844 22.367188 28.082031 20.933594 C 28.082031 19.808594 28.148438 19.332031 28.300781 19.332031 C 28.316406 19.332031 28.300781 19.398438 28.257812 19.484375 Z M 23.109375 19.558594 C 23.199219 19.609375 23.183594 31 23.089844 31 C 23.015625 31 22.941406 30.425781 22.890625 29.542969 C 22.882812 29.265625 22.851562 29.449219 22.800781 30.058594 L 22.726562 31 L 21.25 31 L 21.25 19.683594 L 21.484375 19.601562 C 21.609375 19.550781 21.785156 19.492188 21.875 19.476562 C 22.050781 19.433594 23 19.5 23.109375 19.558594 Z M 31.375 19.800781 C 32.433594 19.875 33.332031 19.964844 33.375 20.015625 C 33.433594 20.074219 33.285156 20.082031 32.917969 20.050781 C 32.617188 20.023438 31.773438 19.964844 31.042969 19.917969 C 29.242188 19.800781 28.75 19.75 28.75 19.660156 C 28.75 19.617188 28.910156 19.609375 29.109375 19.625 C 29.300781 19.648438 30.324219 19.726562 31.375 19.800781 Z M 16.308594 20.101562 C 16.285156 20.160156 16.265625 20.117188 16.265625 20 C 16.265625 19.882812 16.285156 19.839844 16.308594 19.890625 C 16.324219 19.949219 16.324219 20.050781 16.308594 20.101562 Z M 36.890625 20.183594 C 37.285156 20.207031 37.257812 20.226562 35.792969 20.765625 C 34.964844 21.066406 34.226562 21.339844 34.148438 21.375 C 34.007812 21.433594 33.925781 21.25 33.785156 20.515625 L 33.734375 20.25 L 34.507812 20.234375 C 34.941406 20.226562 35.125 20.207031 34.917969 20.191406 C 34.148438 20.140625 33.667969 20.066406 33.667969 20.015625 C 33.667969 19.984375 34.300781 20 35.074219 20.058594 C 35.859375 20.109375 36.667969 20.167969 36.890625 20.183594 Z M 34.183594 23.484375 C 34.074219 23.5 33.964844 23.492188 33.941406 23.464844 C 33.898438 23.433594 33.667969 21.582031 33.550781 20.457031 C 33.523438 20.226562 33.707031 20.808594 33.949219 21.75 L 34.382812 23.457031 Z M 33.023438 20.214844 L 33.410156 20.273438 L 33.476562 20.867188 C 33.507812 21.191406 33.542969 21.492188 33.542969 21.535156 C 33.542969 21.566406 33.410156 21.648438 33.25 21.714844 C 29.683594 23.089844 29.691406 23.082031 29.300781 22.910156 C 28.957031 22.75 28.859375 22.390625 28.816406 21.226562 L 28.773438 20.167969 L 30.707031 20.167969 C 31.773438 20.167969 32.816406 20.191406 33.023438 20.214844 Z M 16.175781 22.398438 C 16.125 23.417969 16.074219 25.542969 16.074219 27.140625 C 16.058594 29.566406 16.050781 29.890625 15.984375 29.125 C 15.839844 27.367188 16.042969 20.339844 16.226562 20.535156 C 16.25 20.550781 16.226562 21.390625 16.175781 22.398438 Z M 39.332031 21.917969 L 39.332031 23.339844 L 38.816406 23.316406 L 38.308594 23.292969 L 38.035156 22.042969 C 37.882812 21.351562 37.757812 20.726562 37.757812 20.640625 C 37.75 20.515625 37.839844 20.5 38.542969 20.5 L 39.332031 20.5 Z M 40.484375 20.601562 C 40.542969 20.660156 40.582031 20.785156 40.582031 20.882812 C 40.582031 21.042969 40.535156 21.074219 40.273438 21.101562 L 39.957031 21.125 L 39.933594 22.226562 C 39.917969 23.265625 39.898438 23.332031 39.75 23.332031 C 39.589844 23.332031 39.582031 23.265625 39.582031 21.917969 L 39.582031 20.5 L 39.984375 20.5 C 40.199219 20.5 40.425781 20.542969 40.484375 20.601562 Z M 21.066406 20.890625 C 21.042969 21.007812 20.734375 21.101562 19.417969 21.351562 C 18.523438 21.515625 17.734375 21.660156 17.667969 21.660156 C 17.558594 21.648438 20.816406 20.785156 21.023438 20.757812 C 21.066406 20.75 21.082031 20.816406 21.066406 20.890625 Z M 17.476562 21.714844 C 17.449219 21.742188 17.375 21.75 17.316406 21.726562 C 17.25 21.699219 17.273438 21.675781 17.367188 21.675781 C 17.457031 21.667969 17.507812 21.691406 17.476562 21.714844 Z M 18.398438 22.515625 C 18.558594 22.675781 18.542969 26.367188 18.382812 26.492188 C 18.316406 26.550781 18.023438 26.601562 17.734375 26.609375 L 17.207031 26.625 L 17.183594 24.742188 C 17.160156 22.507812 17.089844 22.648438 18.257812 22.425781 C 18.285156 22.417969 18.339844 22.457031 18.398438 22.515625 Z M 37.410156 23.285156 C 37.390625 23.300781 36.726562 23.339844 35.941406 23.375 C 34.910156 23.417969 34.5 23.410156 34.5 23.339844 C 34.5 23.273438 34.957031 23.25 35.976562 23.25 C 36.785156 23.25 37.425781 23.265625 37.410156 23.285156 Z M 43.351562 23.957031 C 44.457031 24.207031 44.992188 24.375 45.058594 24.476562 C 45.140625 24.582031 45.167969 25.574219 45.167969 28.890625 L 45.167969 33.167969 L 37.917969 33.167969 L 37.917969 28.832031 C 37.917969 24.292969 37.933594 24.125 38.285156 24.035156 C 38.492188 23.984375 41.292969 23.609375 41.558594 23.589844 C 41.660156 23.582031 42.457031 23.75 43.351562 23.957031 Z M 35.023438 23.800781 C 36.476562 23.832031 37.667969 23.867188 37.667969 23.875 C 37.667969 23.890625 37.609375 24.007812 37.542969 24.132812 C 37.441406 24.324219 37.417969 24.808594 37.410156 26.582031 L 37.390625 28.792969 L 37.316406 27.5 C 37.273438 26.792969 37.226562 26.199219 37.214844 26.191406 C 37.207031 26.175781 36.132812 26.042969 34.824219 25.882812 C 32.140625 25.566406 32.183594 25.535156 35.082031 25.707031 C 36.207031 25.773438 37.148438 25.832031 37.183594 25.832031 C 37.207031 25.832031 37.214844 25.757812 37.191406 25.675781 C 37.140625 25.464844 37.265625 25.484375 32.800781 25.109375 C 29.007812 24.800781 28.707031 24.75 28.964844 24.5 C 29.007812 24.464844 30.410156 24.382812 32.082031 24.324219 C 33.75 24.265625 35.023438 24.191406 34.917969 24.160156 C 34.800781 24.125 33.433594 24.050781 31.875 24 C 30.316406 23.941406 29.015625 23.882812 28.984375 23.859375 C 28.941406 23.839844 28.917969 23.785156 28.917969 23.734375 C 28.917969 23.667969 29.417969 23.660156 30.648438 23.691406 C 31.601562 23.726562 33.566406 23.773438 35.023438 23.800781 Z M 29 26.457031 L 29 27.582031 L 28.082031 27.582031 L 28.082031 25.332031 L 29 25.332031 Z M 32.058594 25.550781 C 32.035156 25.574219 31.957031 25.582031 31.898438 25.558594 C 31.832031 25.535156 31.859375 25.507812 31.949219 25.507812 C 32.042969 25.5 32.089844 25.523438 32.058594 25.550781 Z M 37.398438 29.910156 L 37.425781 30.601562 L 37.074219 30.308594 C 36.882812 30.140625 36.566406 29.933594 36.367188 29.839844 C 35.964844 29.648438 34.859375 29.449219 33.742188 29.367188 C 32.292969 29.257812 33.035156 29.167969 35.191406 29.183594 L 37.375 29.207031 Z M 31.375 29.492188 C 31.933594 29.742188 32.476562 30.375 32.898438 31.265625 L 33.292969 32.074219 L 35.257812 32.082031 L 37.234375 32.082031 L 37.292969 32.382812 C 37.316406 32.550781 37.324219 32.699219 37.308594 32.726562 C 37.285156 32.742188 36.433594 32.792969 35.410156 32.839844 C 34.382812 32.882812 33.390625 32.925781 33.207031 32.941406 C 33.023438 32.949219 33.699219 32.992188 34.707031 33.023438 C 36.808594 33.101562 37.5 33.160156 37.5 33.257812 C 37.5 33.300781 36.398438 33.332031 35.050781 33.332031 C 32.257812 33.332031 32.316406 33.351562 32.042969 32.609375 C 31.839844 32.074219 31.410156 31.398438 31.117188 31.175781 C 30.339844 30.566406 29.457031 30.625 28.941406 31.308594 C 28.457031 31.976562 27.964844 33.265625 27.625 34.808594 C 27.441406 35.617188 27.425781 35.660156 27.464844 35.167969 C 27.582031 33.890625 28.074219 32 28.542969 31.082031 C 29.265625 29.660156 30.375 29.035156 31.375 29.492188 Z M 35.417969 30.167969 L 36.292969 30.226562 L 35.082031 30.242188 C 34.257812 30.25 33.832031 30.285156 33.765625 30.351562 C 33.707031 30.410156 33.667969 30.707031 33.660156 31.074219 L 33.648438 31.707031 L 33.542969 31.316406 C 33.484375 31.101562 33.316406 30.714844 33.175781 30.457031 L 32.917969 30 L 33.726562 30.050781 C 34.175781 30.074219 34.933594 30.125 35.417969 30.167969 Z M 46.375 30.25 C 46.515625 30.339844 46.566406 30.417969 46.5 30.417969 C 46.359375 30.417969 45.910156 30.089844 46.042969 30.082031 C 46.089844 30.082031 46.242188 30.160156 46.375 30.25 Z M 36.917969 30.574219 C 37.042969 30.816406 37.023438 31.542969 36.882812 31.660156 C 36.808594 31.726562 36.339844 31.75 35.410156 31.734375 L 34.042969 31.707031 L 34.015625 31.183594 C 34 30.867188 34.035156 30.609375 34.089844 30.535156 C 34.167969 30.441406 34.476562 30.417969 35.507812 30.417969 C 36.726562 30.417969 36.832031 30.425781 36.917969 30.574219 Z M 48.066406 30.683594 C 48.207031 30.824219 48.199219 31.707031 48.050781 31.824219 C 47.976562 31.890625 47.574219 31.917969 46.824219 31.898438 L 45.707031 31.875 L 45.683594 31.339844 C 45.667969 31.050781 45.675781 30.757812 45.699219 30.699219 C 45.757812 30.542969 47.917969 30.535156 48.066406 30.683594 Z M 28.183594 31.351562 C 28.101562 31.433594 27.023438 31.464844 23.601562 31.5 C 20.617188 31.523438 19.398438 31.558594 19.957031 31.601562 C 20.417969 31.640625 21.707031 31.667969 22.832031 31.667969 C 25.449219 31.667969 28 31.757812 28 31.851562 C 28 31.882812 25.351562 31.910156 22.109375 31.898438 L 16.207031 31.875 L 16.183594 31.683594 C 16.117188 31.226562 15.757812 31.25 22.265625 31.25 C 27.082031 31.25 28.265625 31.273438 28.183594 31.351562 Z M 30.992188 31.367188 C 31.066406 31.457031 31.015625 31.492188 30.691406 31.542969 C 30.101562 31.625 29.589844 31.898438 29.109375 32.390625 C 28.367188 33.140625 27.957031 34.214844 27.824219 35.75 L 27.757812 36.542969 L 27.792969 35.582031 C 27.839844 34.117188 28.183594 33.148438 28.925781 32.308594 C 29.339844 31.824219 29.75 31.558594 30.300781 31.382812 C 30.816406 31.226562 30.875 31.226562 30.992188 31.367188 Z M 31.574219 32.023438 C 31.625 32.089844 31.726562 32.273438 31.792969 32.449219 L 31.925781 32.765625 L 31.734375 32.691406 C 31.625 32.660156 31.285156 32.625 30.957031 32.625 C 30.476562 32.632812 30.300781 32.667969 29.925781 32.875 C 29.292969 33.226562 28.800781 33.875 28.535156 34.707031 C 28.433594 35.023438 28.425781 35.023438 28.425781 34.792969 C 28.425781 34.648438 28.507812 34.285156 28.625 33.976562 C 29.058594 32.734375 30.042969 31.941406 31.175781 31.925781 C 31.339844 31.917969 31.523438 31.964844 31.574219 32.023438 Z M 13.785156 32.476562 C 14.058594 33.015625 14.25 33.707031 14.25 34.132812 L 14.25 34.484375 L 15.148438 34.542969 C 16.160156 34.601562 16.410156 34.648438 15.785156 34.660156 L 15.351562 34.667969 L 15.25 35.339844 C 15.132812 36.140625 14.890625 36.976562 14.707031 37.207031 C 14.589844 37.359375 14.589844 37.339844 14.707031 37.101562 C 14.882812 36.734375 15.082031 35.683594 15.082031 35.125 L 15.082031 34.675781 L 14.566406 34.648438 L 14.042969 34.625 L 13.984375 33.917969 C 13.949219 33.476562 13.851562 32.992188 13.714844 32.640625 C 13.601562 32.332031 13.523438 32.082031 13.542969 32.082031 C 13.566406 32.082031 13.667969 32.257812 13.785156 32.476562 Z M 48.074219 32.351562 C 48.125 32.5 48.183594 32.785156 48.214844 32.976562 L 48.273438 33.332031 L 47.925781 33.332031 C 47.582031 33.332031 47.582031 33.332031 47.582031 33.015625 C 47.582031 32.851562 47.558594 32.566406 47.535156 32.390625 C 47.484375 32.089844 47.484375 32.082031 47.734375 32.082031 C 47.949219 32.082031 48 32.125 48.074219 32.351562 Z M 24.199219 32.542969 C 24.550781 32.726562 24.691406 32.75 25.484375 32.75 C 25.976562 32.75 26.425781 32.785156 26.484375 32.824219 C 26.550781 32.867188 26.582031 33 26.566406 33.132812 L 26.542969 33.375 L 23.457031 33.375 L 23.457031 33.082031 C 23.457031 32.808594 23.476562 32.792969 23.792969 32.75 L 24.125 32.699219 L 23.773438 32.582031 C 23.273438 32.425781 22.816406 32.574219 22.375 33.035156 C 21.726562 33.707031 21.648438 34.792969 22.199219 35.601562 C 22.359375 35.839844 22.375 35.910156 22.285156 36.035156 C 22.191406 36.167969 22.175781 36.167969 22.132812 36.015625 C 22.101562 35.925781 21.984375 35.824219 21.859375 35.800781 C 21.601562 35.734375 21.492188 35.808594 21.675781 35.941406 C 21.742188 36 21.933594 36.140625 22.089844 36.265625 L 22.375 36.5 L 20.417969 36.5 C 19.292969 36.5 18.324219 36.457031 18.140625 36.410156 C 17.742188 36.300781 17.207031 35.824219 16.984375 35.390625 C 16.464844 34.375 16.882812 32.992188 17.851562 32.507812 C 18.191406 32.339844 18.324219 32.332031 21.007812 32.332031 L 23.808594 32.332031 Z M 12.457031 32.933594 C 12.582031 33.117188 12.574219 33.125 12.398438 33.167969 C 12.050781 33.25 11.875 33.765625 11.875 34.707031 C 11.875 35.667969 12.050781 36.167969 12.417969 36.25 L 12.617188 36.300781 L 12.433594 36.484375 C 12.332031 36.582031 12.199219 36.640625 12.132812 36.617188 C 11.648438 36.433594 11.441406 34.332031 11.800781 33.308594 C 12.007812 32.714844 12.214844 32.601562 12.457031 32.933594 Z M 9.917969 33 C 9.992188 33.140625 9.984375 33.167969 9.832031 33.167969 C 9.707031 33.167969 9.609375 33.273438 9.484375 33.550781 C 9.25 34.089844 9.292969 35.375 9.558594 35.726562 C 9.648438 35.859375 9.792969 35.949219 9.867188 35.949219 C 9.964844 35.941406 9.976562 35.964844 9.917969 36.089844 C 9.785156 36.324219 9.667969 36.359375 9.507812 36.207031 C 9.035156 35.792969 8.992188 33.5 9.441406 32.933594 C 9.566406 32.785156 9.816406 32.816406 9.917969 33 Z M 3.339844 33.058594 C 3.449219 33.183594 3.441406 33.183594 3.273438 33.082031 C 3.132812 32.992188 3.074219 32.992188 2.964844 33.074219 C 2.558594 33.417969 2.410156 35.066406 2.714844 35.867188 C 2.917969 36.390625 3.089844 36.507812 3.351562 36.292969 L 3.542969 36.132812 L 3.367188 36.324219 C 3.117188 36.589844 2.890625 36.5 2.660156 36.015625 C 2.410156 35.492188 2.339844 34.351562 2.523438 33.800781 C 2.660156 33.425781 2.660156 33.417969 2.433594 33.25 C 2.316406 33.148438 2.148438 33.089844 2.066406 33.109375 C 1.984375 33.132812 1.917969 33.117188 1.917969 33.074219 C 1.917969 32.917969 2.410156 33 2.535156 33.183594 L 2.660156 33.367188 L 2.832031 33.140625 C 3.042969 32.882812 3.183594 32.859375 3.339844 33.058594 Z M 31.425781 33.167969 C 31.808594 33.273438 32.382812 33.765625 32.582031 34.175781 C 32.707031 34.410156 32.75 34.660156 32.75 35.160156 C 32.75 35.757812 32.734375 35.816406 32.589844 35.773438 C 32.417969 35.734375 32.300781 35.941406 32.382812 36.183594 C 32.417969 36.292969 32.484375 36.332031 32.589844 36.308594 C 32.726562 36.273438 32.75 36.308594 32.75 36.589844 C 32.75 37.199219 32.207031 37.933594 31.566406 38.199219 C 30.550781 38.625 29.410156 37.898438 29.035156 36.601562 C 28.859375 36.007812 28.917969 35.007812 29.148438 34.484375 C 29.484375 33.714844 30.265625 33.089844 30.875 33.082031 C 31.015625 33.082031 31.257812 33.125 31.425781 33.167969 Z M 10.074219 33.507812 C 10.125 33.660156 10.167969 34.132812 10.167969 34.574219 C 10.167969 35.359375 10.066406 35.742188 9.859375 35.808594 C 9.714844 35.859375 9.632812 35.515625 9.757812 35.367188 C 9.808594 35.300781 9.832031 35.226562 9.800781 35.191406 C 9.773438 35.167969 9.75 35.183594 9.75 35.242188 C 9.75 35.484375 9.601562 35.226562 9.558594 34.898438 C 9.492188 34.382812 9.574219 33.816406 9.714844 33.867188 C 9.859375 33.917969 9.867188 33.816406 9.742188 33.691406 C 9.625 33.574219 9.726562 33.25 9.875 33.25 C 9.933594 33.25 10.023438 33.367188 10.074219 33.507812 Z M 12.683594 33.476562 C 12.742188 33.609375 12.785156 34.140625 12.785156 34.707031 C 12.785156 35.734375 12.699219 36.082031 12.449219 36.082031 C 12.273438 36.082031 12.148438 35.726562 12.300781 35.640625 C 12.457031 35.550781 12.449219 35.410156 12.292969 35.464844 C 12.125 35.535156 12.058594 35.207031 12.101562 34.5 C 12.132812 33.898438 12.207031 33.714844 12.332031 33.917969 C 12.382812 33.992188 12.417969 34 12.417969 33.941406 C 12.417969 33.882812 12.359375 33.808594 12.292969 33.765625 C 12.183594 33.707031 12.175781 33.648438 12.242188 33.476562 C 12.351562 33.183594 12.558594 33.191406 12.683594 33.476562 Z M 23.691406 34.976562 C 22.941406 35.839844 22.816406 35.976562 22.875 35.792969 C 23.007812 35.390625 23.675781 33.632812 23.726562 33.550781 C 23.757812 33.5 23.851562 33.699219 23.941406 33.984375 L 24.089844 34.507812 Z M 26.535156 34.074219 L 26.667969 34.515625 L 26.058594 35.207031 C 25.566406 35.773438 25.457031 35.949219 25.457031 36.175781 L 25.457031 36.457031 L 23.941406 36.484375 L 22.417969 36.5 L 22.417969 36 L 23.890625 35.984375 L 25.367188 35.957031 L 25.589844 35.375 C 25.714844 35.050781 25.824219 34.742188 25.824219 34.683594 C 25.832031 34.609375 25.632812 34.582031 25.109375 34.574219 C 24.464844 34.566406 24.425781 34.558594 24.75 34.492188 C 24.957031 34.457031 25.316406 34.425781 25.542969 34.425781 L 25.964844 34.417969 L 26.125 33.957031 C 26.207031 33.699219 26.308594 33.523438 26.339844 33.558594 C 26.375 33.589844 26.457031 33.824219 26.535156 34.074219 Z M 1.640625 33.816406 C 1.375 33.867188 1.226562 34.839844 1.425781 35.285156 C 1.476562 35.390625 1.589844 35.5 1.675781 35.523438 C 1.808594 35.558594 1.816406 35.601562 1.742188 35.824219 C 1.625 36.160156 1.5 36.234375 1.359375 36.042969 C 1.226562 35.851562 1.214844 35.683594 1.351562 35.816406 C 1.492188 35.957031 1.566406 35.941406 1.675781 35.726562 C 1.765625 35.566406 1.757812 35.558594 1.648438 35.648438 C 1.398438 35.851562 1.292969 35.550781 1.292969 34.667969 C 1.292969 33.785156 1.398438 33.484375 1.648438 33.683594 C 1.757812 33.785156 1.757812 33.792969 1.640625 33.816406 Z M 3.292969 33.882812 C 3.425781 34.214844 3.457031 35.300781 3.339844 35.492188 C 3.25 35.632812 3.058594 35.523438 3.117188 35.367188 C 3.140625 35.308594 3.125 35.234375 3.082031 35.207031 C 2.992188 35.148438 2.964844 34.390625 3.058594 34.308594 C 3.082031 34.273438 3.117188 34.148438 3.125 34.035156 C 3.132812 33.839844 3.117188 33.839844 3.023438 33.964844 C 2.757812 34.332031 2.800781 35.300781 3.101562 35.601562 C 3.226562 35.726562 3.242188 35.792969 3.175781 35.859375 C 3.109375 35.925781 3.042969 35.910156 2.933594 35.808594 C 2.816406 35.683594 2.792969 35.507812 2.792969 34.757812 C 2.792969 34.117188 2.824219 33.816406 2.910156 33.726562 C 3.074219 33.515625 3.148438 33.550781 3.292969 33.882812 Z M 42.117188 33.832031 C 45.640625 33.882812 48.558594 33.941406 48.601562 33.964844 C 48.683594 34.023438 48.691406 36.808594 48.601562 36.867188 C 48.542969 36.898438 39.523438 37.058594 35.140625 37.101562 C 33.492188 37.109375 33.140625 37.089844 33.074219 36.992188 C 32.949219 36.792969 32.984375 33.949219 33.109375 33.816406 C 33.191406 33.734375 33.515625 33.707031 34.464844 33.726562 C 35.148438 33.742188 38.589844 33.792969 42.117188 33.832031 Z M 1.816406 34.589844 C 1.832031 35.242188 1.734375 35.566406 1.582031 35.332031 C 1.535156 35.25 1.535156 35.199219 1.582031 35.183594 C 1.632812 35.167969 1.667969 35.117188 1.667969 35.074219 C 1.667969 35.023438 1.632812 35.015625 1.582031 35.042969 C 1.535156 35.074219 1.5 34.933594 1.5 34.667969 C 1.5 34.398438 1.535156 34.257812 1.582031 34.292969 C 1.632812 34.316406 1.667969 34.308594 1.667969 34.257812 C 1.667969 34.214844 1.625 34.167969 1.566406 34.148438 C 1.515625 34.132812 1.5 34.066406 1.535156 34.007812 C 1.683594 33.765625 1.792969 33.992188 1.816406 34.589844 Z M 7.167969 35.308594 C 7.175781 35.441406 7.226562 35.691406 7.292969 35.875 C 7.359375 36.058594 7.382812 36.234375 7.351562 36.257812 C 7.316406 36.292969 6.816406 36.332031 6.242188 36.351562 L 5.191406 36.390625 L 5.351562 35.984375 C 5.433594 35.765625 5.5 35.492188 5.5 35.382812 C 5.5 35.140625 5.609375 35.109375 6.523438 35.089844 L 7.167969 35.082031 Z M 27.390625 36.101562 C 27.367188 36.167969 27.339844 36.140625 27.339844 36.050781 C 27.332031 35.957031 27.359375 35.910156 27.382812 35.941406 C 27.410156 35.964844 27.417969 36.042969 27.390625 36.101562 Z M 9.925781 36.625 C 9.832031 36.832031 9.707031 37 9.640625 37 C 9.5 37 9.316406 36.792969 9.183594 36.476562 C 9.042969 36.140625 9.058594 36.117188 9.257812 36.367188 C 9.484375 36.648438 9.707031 36.640625 9.890625 36.332031 C 10.101562 35.976562 10.125 36.167969 9.925781 36.625 Z M 10.640625 36.265625 C 10.617188 36.332031 10.589844 36.308594 10.589844 36.214844 C 10.582031 36.125 10.609375 36.074219 10.632812 36.109375 C 10.660156 36.132812 10.667969 36.207031 10.640625 36.265625 Z M 2.832031 36.5 C 2.925781 36.558594 2.898438 36.574219 2.707031 36.574219 C 2.574219 36.566406 2.351562 36.535156 2.207031 36.5 C 1.984375 36.441406 1.992188 36.433594 2.332031 36.425781 C 2.542969 36.425781 2.765625 36.457031 2.832031 36.5 Z M 10.464844 36.957031 C 10.382812 37.167969 10.292969 37.332031 10.25 37.332031 C 10.214844 37.332031 10.25 37.183594 10.339844 37 C 10.425781 36.824219 10.5 36.625 10.5 36.574219 C 10.5 36.515625 10.523438 36.5 10.550781 36.523438 C 10.582031 36.558594 10.542969 36.75 10.464844 36.957031 Z M 27.890625 36.890625 C 27.867188 36.976562 27.851562 36.925781 27.851562 36.792969 C 27.851562 36.648438 27.867188 36.589844 27.890625 36.640625 C 27.910156 36.699219 27.910156 36.816406 27.890625 36.890625 Z M 27.976562 37.265625 C 27.949219 37.332031 27.925781 37.308594 27.925781 37.214844 C 27.917969 37.125 27.941406 37.074219 27.964844 37.109375 C 27.992188 37.132812 28 37.207031 27.976562 37.265625 Z M 33.550781 37.726562 C 33.339844 38.140625 32.734375 38.660156 32.25 38.851562 C 31.25 39.234375 30.207031 39.015625 29.492188 38.273438 L 29.125 37.898438 L 29.542969 38.191406 C 30.082031 38.566406 30.5 38.699219 31.175781 38.699219 C 31.890625 38.699219 32.425781 38.441406 32.832031 37.890625 C 33.074219 37.566406 33.167969 37.5 33.398438 37.5 C 33.667969 37.5 33.667969 37.5 33.550781 37.726562 Z M 33.550781 37.726562 "/>
<path style=" stroke:none;fill-rule:nonzero;fill:rgb(0%,0%,0%);fill-opacity:1;" d="M 21.964844 11.625 C 22.035156 11.933594 22.082031 12 22.082031 11.785156 C 22.082031 11.699219 22.042969 11.566406 22 11.5 C 21.933594 11.410156 21.925781 11.441406 21.964844 11.625 Z M 21.964844 11.625 "/>
<path style=" stroke:none;fill-rule:nonzero;fill:rgb(0%,0%,0%);fill-opacity:1;" d="M 18.476562 17.410156 C 17.890625 17.582031 17.359375 17.773438 17.292969 17.832031 C 17.199219 17.910156 17.167969 18.117188 17.167969 18.589844 C 17.167969 18.949219 17.199219 19.257812 17.234375 19.285156 C 17.351562 19.359375 20.089844 18.601562 20.257812 18.449219 C 20.464844 18.257812 20.457031 17.867188 20.226562 17.457031 C 19.976562 17.015625 19.800781 17.007812 18.476562 17.410156 Z M 19.660156 17.292969 C 19.632812 17.308594 19.175781 17.492188 18.632812 17.699219 C 18.089844 17.910156 17.632812 18.089844 17.609375 18.109375 C 17.589844 18.132812 17.542969 18.332031 17.5 18.558594 L 17.433594 18.957031 L 17.425781 18.535156 C 17.417969 18.207031 17.457031 18.074219 17.582031 17.957031 C 17.773438 17.785156 19.824219 17.125 19.660156 17.292969 Z M 19.660156 17.292969 "/>
<path style=" stroke:none;fill-rule:nonzero;fill:rgb(0%,0%,0%);fill-opacity:1;" d="M 28.851562 17.515625 C 28.707031 17.660156 28.726562 18.125 28.875 18.25 C 28.984375 18.339844 28.992188 18.332031 28.949219 18.214844 C 28.910156 18.117188 28.933594 18.089844 29.050781 18.132812 C 29.199219 18.175781 29.199219 18.175781 29.050781 18.050781 C 28.890625 17.925781 28.890625 17.917969 29.050781 17.742188 C 29.207031 17.558594 29.207031 17.558594 29.015625 17.660156 C 28.832031 17.757812 28.824219 17.75 28.917969 17.589844 C 29.015625 17.390625 29 17.367188 28.851562 17.515625 Z M 28.851562 17.515625 "/>
<path style=" stroke:none;fill-rule:nonzero;fill:rgb(0%,0%,0%);fill-opacity:1;" d="M 34.515625 17.933594 C 34.351562 18.101562 34.417969 18.667969 34.601562 18.667969 C 34.648438 18.667969 34.632812 18.609375 34.574219 18.523438 C 34.464844 18.398438 34.476562 18.398438 34.667969 18.5 L 34.875 18.609375 L 34.714844 18.425781 C 34.558594 18.25 34.558594 18.242188 34.714844 18.125 C 34.875 18 34.875 18 34.714844 18.058594 C 34.589844 18.101562 34.566406 18.082031 34.609375 17.976562 C 34.675781 17.808594 34.648438 17.800781 34.515625 17.933594 Z M 34.515625 17.933594 "/>
<path style=" stroke:none;fill-rule:nonzero;fill:rgb(0%,0%,0%);fill-opacity:1;" d="M 31.574219 18.390625 C 31.464844 18.515625 31.476562 18.515625 31.667969 18.417969 C 31.949219 18.273438 31.964844 18.25 31.816406 18.25 C 31.742188 18.25 31.632812 18.308594 31.574219 18.390625 Z M 31.574219 18.390625 "/>
<path style=" stroke:none;fill-rule:nonzero;fill:rgb(0%,0%,0%);fill-opacity:1;" d="M 32.5 18.410156 C 32.5 18.441406 32.589844 18.457031 32.707031 18.433594 C 32.824219 18.417969 32.917969 18.382812 32.917969 18.367188 C 32.917969 18.351562 32.824219 18.332031 32.707031 18.332031 C 32.589844 18.332031 32.5 18.367188 32.5 18.410156 Z M 32.5 18.410156 "/>
<path style=" stroke:none;fill-rule:nonzero;fill:rgb(0%,0%,0%);fill-opacity:1;" d="M 33.5 18.492188 C 33.5 18.523438 33.589844 18.542969 33.707031 18.515625 C 33.824219 18.5 33.917969 18.464844 33.917969 18.449219 C 33.917969 18.433594 33.824219 18.417969 33.707031 18.417969 C 33.589844 18.417969 33.5 18.449219 33.5 18.492188 Z M 33.5 18.492188 "/>
<path style=" stroke:none;fill-rule:nonzero;fill:rgb(0%,0%,0%);fill-opacity:1;" d="M 24.640625 19.390625 C 24.515625 19.515625 24.589844 19.75 24.75 19.75 C 24.839844 19.75 24.941406 19.800781 24.964844 19.859375 C 24.992188 19.933594 25.109375 19.957031 25.359375 19.925781 C 25.683594 19.875 25.707031 19.851562 25.734375 19.601562 L 25.757812 19.332031 L 25.226562 19.332031 C 24.933594 19.332031 24.667969 19.359375 24.640625 19.390625 Z M 24.640625 19.390625 "/>
<path style=" stroke:none;fill-rule:nonzero;fill:rgb(0%,0%,0%);fill-opacity:1;" d="M 26.234375 19.890625 L 26 19.925781 L 26 22.890625 L 26.851562 22.949219 C 27.308594 22.976562 27.707031 22.984375 27.734375 22.957031 C 27.800781 22.898438 27.324219 20.050781 27.234375 19.933594 C 27.148438 19.839844 26.714844 19.816406 26.234375 19.890625 Z M 26.234375 19.890625 "/>
<path style=" stroke:none;fill-rule:nonzero;fill:rgb(0%,0%,0%);fill-opacity:1;" d="M 24.125 19.976562 C 23.941406 20 23.765625 20.058594 23.734375 20.109375 C 23.699219 20.167969 23.675781 20.734375 23.675781 21.375 L 23.691406 22.542969 L 23.800781 21.464844 C 23.867188 20.839844 23.957031 20.339844 24.015625 20.273438 C 24.074219 20.214844 24.273438 20.117188 24.457031 20.050781 C 24.792969 19.925781 24.742188 19.917969 24.125 19.976562 Z M 24.125 19.976562 "/>
<path style=" stroke:none;fill-rule:nonzero;fill:rgb(0%,0%,0%);fill-opacity:1;" d="M 25.191406 20.058594 C 25 20.089844 25 20.117188 25 21.375 L 25 22.660156 L 24.773438 22.785156 C 24.550781 22.910156 24.566406 22.910156 25.148438 22.917969 L 25.75 22.917969 L 25.75 20 L 25.566406 20.007812 C 25.457031 20.015625 25.292969 20.042969 25.191406 20.058594 Z M 25.191406 20.058594 "/>
<path style=" stroke:none;fill-rule:nonzero;fill:rgb(0%,0%,0%);fill-opacity:1;" d="M 23.984375 23.308594 C 23.714844 23.625 23.757812 23.992188 24.089844 24.167969 C 24.265625 24.265625 24.265625 24.257812 24.132812 24.074219 C 23.984375 23.851562 23.957031 23.558594 24.082031 23.324219 C 24.191406 23.125 24.148438 23.117188 23.984375 23.308594 Z M 23.984375 23.308594 "/>
<path style=" stroke:none;fill-rule:nonzero;fill:rgb(0%,0%,0%);fill-opacity:1;" d="M 26.066406 23.726562 C 25.949219 23.757812 25.917969 23.851562 25.917969 24.214844 C 25.917969 24.667969 25.917969 24.667969 26.148438 24.617188 C 26.492188 24.535156 26.5 24.515625 26.5 24.074219 C 26.5 23.648438 26.464844 23.617188 26.066406 23.726562 Z M 26.066406 23.726562 "/>
<path style=" stroke:none;fill-rule:nonzero;fill:rgb(0%,0%,0%);fill-opacity:1;" d="M 27.25 24.082031 C 27.25 24.441406 27.273438 24.5 27.417969 24.5 C 27.558594 24.5 27.582031 24.441406 27.582031 24.082031 C 27.582031 23.726562 27.558594 23.667969 27.417969 23.667969 C 27.273438 23.667969 27.25 23.726562 27.25 24.082031 Z M 27.25 24.082031 "/>
<path style=" stroke:none;fill-rule:nonzero;fill:rgb(0%,0%,0%);fill-opacity:1;" d="M 28.167969 24.207031 C 28.167969 24.457031 28.207031 24.667969 28.25 24.667969 C 28.300781 24.667969 28.332031 24.457031 28.332031 24.207031 C 28.332031 23.957031 28.300781 23.75 28.25 23.75 C 28.207031 23.75 28.167969 23.957031 28.167969 24.207031 Z M 28.167969 24.207031 "/>
<path style=" stroke:none;fill-rule:nonzero;fill:rgb(0%,0%,0%);fill-opacity:1;" d="M 26.390625 24.660156 C 25.785156 24.792969 25.992188 24.832031 27.175781 24.824219 C 28.050781 24.824219 28.316406 24.800781 28.167969 24.742188 C 27.890625 24.625 26.773438 24.574219 26.390625 24.660156 Z M 26.390625 24.660156 "/>
<path style=" stroke:none;fill-rule:nonzero;fill:rgb(0%,0%,0%);fill-opacity:1;" d="M 25.917969 25.800781 C 25.917969 26.675781 25.917969 26.683594 26.109375 26.632812 C 26.207031 26.609375 26.339844 26.582031 26.398438 26.582031 C 26.476562 26.582031 26.5 26.359375 26.5 25.75 L 26.5 24.917969 L 25.917969 24.917969 Z M 25.917969 25.800781 "/>
<path style=" stroke:none;fill-rule:nonzero;fill:rgb(0%,0%,0%);fill-opacity:1;" d="M 27.265625 25.726562 C 27.292969 26.425781 27.316406 26.542969 27.441406 26.566406 C 27.566406 26.589844 27.582031 26.507812 27.582031 25.757812 C 27.582031 24.964844 27.574219 24.917969 27.417969 24.917969 C 27.25 24.917969 27.242188 24.957031 27.265625 25.726562 Z M 27.265625 25.726562 "/>
<path style=" stroke:none;fill-rule:nonzero;fill:rgb(0%,0%,0%);fill-opacity:1;" d="M 25.917969 27.367188 L 25.917969 27.839844 L 26.191406 27.816406 C 26.449219 27.792969 26.457031 27.773438 26.484375 27.390625 C 26.5 27.117188 26.476562 27 26.398438 27 C 26.339844 27 26.207031 26.976562 26.109375 26.949219 C 25.925781 26.898438 25.917969 26.917969 25.917969 27.367188 Z M 25.917969 27.367188 "/>
<path style=" stroke:none;fill-rule:nonzero;fill:rgb(0%,0%,0%);fill-opacity:1;" d="M 27.25 27.375 C 27.25 27.691406 27.273438 27.75 27.417969 27.75 C 27.558594 27.75 27.582031 27.691406 27.582031 27.375 C 27.582031 27.058594 27.558594 27 27.417969 27 C 27.273438 27 27.25 27.058594 27.25 27.375 Z M 27.25 27.375 "/>
<path style=" stroke:none;fill-rule:nonzero;fill:rgb(0%,0%,0%);fill-opacity:1;" d="M 26.417969 27.910156 C 25.714844 27.984375 26.117188 28.082031 27.148438 28.082031 C 27.640625 28.082031 28.101562 28.042969 28.167969 28 C 28.257812 27.941406 28.214844 27.917969 28 27.917969 C 27.839844 27.917969 27.523438 27.898438 27.292969 27.882812 C 27.066406 27.867188 26.667969 27.875 26.417969 27.910156 Z M 26.417969 27.910156 "/>
<path style=" stroke:none;fill-rule:nonzero;fill:rgb(0%,0%,0%);fill-opacity:1;" d="M 25.917969 28.75 L 25.917969 29.332031 L 26.199219 29.332031 C 26.359375 29.332031 26.507812 29.300781 26.535156 29.265625 C 26.550781 29.234375 26.550781 28.964844 26.523438 28.683594 L 26.476562 28.167969 L 25.917969 28.167969 Z M 25.917969 28.75 "/>
<path style=" stroke:none;fill-rule:nonzero;fill:rgb(0%,0%,0%);fill-opacity:1;" d="M 28.167969 28.707031 C 28.167969 29.015625 28.199219 29.25 28.25 29.25 C 28.300781 29.25 28.332031 29.015625 28.332031 28.707031 C 28.332031 28.398438 28.300781 28.167969 28.25 28.167969 C 28.199219 28.167969 28.167969 28.398438 28.167969 28.707031 Z M 28.167969 28.707031 "/>
<path style=" stroke:none;fill-rule:nonzero;fill:rgb(0%,0%,0%);fill-opacity:1;" d="M 27.25 28.75 C 27.25 29.191406 27.265625 29.25 27.417969 29.25 C 27.566406 29.25 27.582031 29.191406 27.582031 28.75 C 27.582031 28.308594 27.566406 28.25 27.417969 28.25 C 27.265625 28.25 27.25 28.308594 27.25 28.75 Z M 27.25 28.75 "/>
<path style=" stroke:none;fill-rule:nonzero;fill:rgb(0%,0%,0%);fill-opacity:1;" d="M 22.726562 19.992188 C 22.839844 20.167969 22.917969 20.398438 22.925781 20.617188 C 22.933594 21.125 23.066406 20.75 23.074219 20.199219 C 23.082031 19.773438 23.082031 19.765625 22.808594 19.734375 L 22.535156 19.699219 Z M 22.726562 19.992188 "/>
<path style=" stroke:none;fill-rule:nonzero;fill:rgb(0%,0%,0%);fill-opacity:1;" d="M 21.917969 21.875 C 21.917969 21.949219 21.957031 22 22.007812 21.984375 C 22.058594 21.964844 22.101562 21.917969 22.101562 21.875 C 22.101562 21.832031 22.058594 21.785156 22.007812 21.765625 C 21.957031 21.75 21.917969 21.800781 21.917969 21.875 Z M 21.917969 21.875 "/>
<path style=" stroke:none;fill-rule:nonzero;fill:rgb(0%,0%,0%);fill-opacity:1;" d="M 22.25 21.867188 C 22.25 21.941406 22.308594 22 22.382812 22 C 22.457031 22 22.5 21.957031 22.484375 21.898438 C 22.433594 21.75 22.25 21.726562 22.25 21.867188 Z M 22.25 21.867188 "/>
<path style=" stroke:none;fill-rule:nonzero;fill:rgb(0%,0%,0%);fill-opacity:1;" d="M 21.542969 21.910156 C 21.492188 22 21.617188 22.101562 21.699219 22.023438 C 21.773438 21.949219 21.757812 21.832031 21.675781 21.832031 C 21.625 21.832031 21.574219 21.867188 21.542969 21.910156 Z M 21.542969 21.910156 "/>
<path style=" stroke:none;fill-rule:nonzero;fill:rgb(0%,0%,0%);fill-opacity:1;" d="M 22.601562 21.933594 C 22.648438 22.082031 22.832031 22.109375 22.832031 21.964844 C 22.832031 21.890625 22.773438 21.832031 22.699219 21.832031 C 22.625 21.832031 22.582031 21.875 22.601562 21.933594 Z M 22.601562 21.933594 "/>
<path style=" stroke:none;fill-rule:nonzero;fill:rgb(0%,0%,0%);fill-opacity:1;" d="M 21.726562 22.132812 C 21.660156 22.199219 21.734375 22.332031 21.839844 22.332031 C 21.882812 22.332031 21.917969 22.273438 21.917969 22.207031 C 21.917969 22.082031 21.816406 22.042969 21.726562 22.132812 Z M 21.726562 22.132812 "/>
<path style=" stroke:none;fill-rule:nonzero;fill:rgb(0%,0%,0%);fill-opacity:1;" d="M 22.082031 22.214844 C 22.082031 22.292969 22.125 22.332031 22.183594 22.316406 C 22.332031 22.265625 22.359375 22.082031 22.214844 22.082031 C 22.140625 22.082031 22.082031 22.140625 22.082031 22.214844 Z M 22.082031 22.214844 "/>
<path style=" stroke:none;fill-rule:nonzero;fill:rgb(0%,0%,0%);fill-opacity:1;" d="M 22.433594 22.183594 C 22.484375 22.332031 22.667969 22.359375 22.667969 22.214844 C 22.667969 22.140625 22.609375 22.082031 22.535156 22.082031 C 22.457031 22.082031 22.417969 22.125 22.433594 22.183594 Z M 22.433594 22.183594 "/>
<path style=" stroke:none;fill-rule:nonzero;fill:rgb(0%,0%,0%);fill-opacity:1;" d="M 21.917969 22.457031 C 21.917969 22.535156 21.957031 22.582031 22.007812 22.566406 C 22.058594 22.550781 22.101562 22.5 22.101562 22.457031 C 22.101562 22.417969 22.058594 22.367188 22.007812 22.351562 C 21.957031 22.332031 21.917969 22.382812 21.917969 22.457031 Z M 21.917969 22.457031 "/>
<path style=" stroke:none;fill-rule:nonzero;fill:rgb(0%,0%,0%);fill-opacity:1;" d="M 22.300781 22.390625 C 22.207031 22.484375 22.25 22.582031 22.375 22.582031 C 22.441406 22.582031 22.5 22.550781 22.5 22.507812 C 22.5 22.398438 22.367188 22.324219 22.300781 22.390625 Z M 22.300781 22.390625 "/>
<path style=" stroke:none;fill-rule:nonzero;fill:rgb(0%,0%,0%);fill-opacity:1;" d="M 21.558594 22.476562 C 21.457031 22.566406 21.492188 22.667969 21.625 22.667969 C 21.691406 22.667969 21.75 22.609375 21.75 22.542969 C 21.75 22.410156 21.648438 22.375 21.558594 22.476562 Z M 21.558594 22.476562 "/>
<path style=" stroke:none;fill-rule:nonzero;fill:rgb(0%,0%,0%);fill-opacity:1;" d="M 22.601562 22.515625 C 22.648438 22.667969 22.832031 22.691406 22.832031 22.550781 C 22.832031 22.476562 22.773438 22.417969 22.699219 22.417969 C 22.625 22.417969 22.582031 22.457031 22.601562 22.515625 Z M 22.601562 22.515625 "/>
<path style=" stroke:none;fill-rule:nonzero;fill:rgb(0%,0%,0%);fill-opacity:1;" d="M 21.726562 22.726562 C 21.625 22.816406 21.660156 22.917969 21.792969 22.917969 C 21.859375 22.917969 21.917969 22.859375 21.917969 22.792969 C 21.917969 22.660156 21.816406 22.625 21.726562 22.726562 Z M 21.726562 22.726562 "/>
<path style=" stroke:none;fill-rule:nonzero;fill:rgb(0%,0%,0%);fill-opacity:1;" d="M 22.082031 22.792969 C 22.082031 22.867188 22.125 22.917969 22.175781 22.898438 C 22.226562 22.882812 22.265625 22.832031 22.265625 22.792969 C 22.265625 22.75 22.226562 22.699219 22.175781 22.683594 C 22.125 22.667969 22.082031 22.714844 22.082031 22.792969 Z M 22.082031 22.792969 "/>
<path style=" stroke:none;fill-rule:nonzero;fill:rgb(0%,0%,0%);fill-opacity:1;" d="M 22.417969 22.785156 C 22.417969 22.859375 22.476562 22.917969 22.550781 22.917969 C 22.625 22.917969 22.667969 22.875 22.648438 22.816406 C 22.601562 22.667969 22.417969 22.640625 22.417969 22.785156 Z M 22.417969 22.785156 "/>
<path style=" stroke:none;fill-rule:nonzero;fill:rgb(0%,0%,0%);fill-opacity:1;" d="M 21.558594 23.058594 C 21.457031 23.148438 21.492188 23.25 21.625 23.25 C 21.691406 23.25 21.75 23.191406 21.75 23.125 C 21.75 22.992188 21.648438 22.957031 21.558594 23.058594 Z M 21.558594 23.058594 "/>
<path style=" stroke:none;fill-rule:nonzero;fill:rgb(0%,0%,0%);fill-opacity:1;" d="M 21.917969 23.082031 C 21.917969 23.125 21.957031 23.167969 22 23.167969 C 22.050781 23.167969 22.082031 23.125 22.082031 23.082031 C 22.082031 23.035156 22.050781 23 22 23 C 21.957031 23 21.917969 23.035156 21.917969 23.082031 Z M 21.917969 23.082031 "/>
<path style=" stroke:none;fill-rule:nonzero;fill:rgb(0%,0%,0%);fill-opacity:1;" d="M 22.265625 23.089844 C 22.285156 23.140625 22.332031 23.175781 22.375 23.175781 C 22.417969 23.175781 22.464844 23.140625 22.484375 23.089844 C 22.5 23.042969 22.449219 23 22.375 23 C 22.300781 23 22.25 23.042969 22.265625 23.089844 Z M 22.265625 23.089844 "/>
<path style=" stroke:none;fill-rule:nonzero;fill:rgb(0%,0%,0%);fill-opacity:1;" d="M 22.601562 23.101562 C 22.648438 23.25 22.832031 23.273438 22.832031 23.132812 C 22.832031 23.058594 22.773438 23 22.699219 23 C 22.625 23 22.582031 23.042969 22.601562 23.101562 Z M 22.601562 23.101562 "/>
<path style=" stroke:none;fill-rule:nonzero;fill:rgb(0%,0%,0%);fill-opacity:1;" d="M 21.726562 23.308594 C 21.625 23.398438 21.660156 23.5 21.792969 23.5 C 21.859375 23.5 21.917969 23.441406 21.917969 23.375 C 21.917969 23.242188 21.816406 23.207031 21.726562 23.308594 Z M 21.726562 23.308594 "/>
<path style=" stroke:none;fill-rule:nonzero;fill:rgb(0%,0%,0%);fill-opacity:1;" d="M 22.082031 23.375 C 22.082031 23.449219 22.125 23.5 22.175781 23.484375 C 22.226562 23.464844 22.265625 23.417969 22.265625 23.375 C 22.265625 23.332031 22.226562 23.285156 22.175781 23.265625 C 22.125 23.25 22.082031 23.300781 22.082031 23.375 Z M 22.082031 23.375 "/>
<path style=" stroke:none;fill-rule:nonzero;fill:rgb(0%,0%,0%);fill-opacity:1;" d="M 22.464844 23.308594 C 22.375 23.398438 22.417969 23.5 22.542969 23.5 C 22.609375 23.5 22.667969 23.464844 22.667969 23.425781 C 22.667969 23.316406 22.535156 23.242188 22.464844 23.308594 Z M 22.464844 23.308594 "/>
<path style=" stroke:none;fill-rule:nonzero;fill:rgb(0%,0%,0%);fill-opacity:1;" d="M 21.558594 23.640625 C 21.457031 23.734375 21.492188 23.832031 21.625 23.832031 C 21.691406 23.832031 21.75 23.773438 21.75 23.707031 C 21.75 23.574219 21.648438 23.542969 21.558594 23.640625 Z M 21.558594 23.640625 "/>
<path style=" stroke:none;fill-rule:nonzero;fill:rgb(0%,0%,0%);fill-opacity:1;" d="M 21.917969 23.699219 C 21.917969 23.765625 21.859375 23.832031 21.792969 23.867188 C 21.726562 23.890625 21.667969 23.949219 21.667969 24 C 21.667969 24.042969 21.726562 24.082031 21.792969 24.082031 C 21.859375 24.082031 21.917969 24.035156 21.917969 23.964844 C 21.917969 23.898438 21.976562 23.824219 22.050781 23.800781 C 22.117188 23.773438 22.148438 23.714844 22.125 23.667969 C 22.050781 23.542969 21.917969 23.566406 21.917969 23.699219 Z M 21.917969 23.699219 "/>
<path style=" stroke:none;fill-rule:nonzero;fill:rgb(0%,0%,0%);fill-opacity:1;" d="M 22.265625 23.675781 C 22.285156 23.726562 22.332031 23.757812 22.375 23.757812 C 22.417969 23.757812 22.464844 23.726562 22.484375 23.675781 C 22.5 23.625 22.449219 23.582031 22.375 23.582031 C 22.300781 23.582031 22.25 23.625 22.265625 23.675781 Z M 22.265625 23.675781 "/>
<path style=" stroke:none;fill-rule:nonzero;fill:rgb(0%,0%,0%);fill-opacity:1;" d="M 22.632812 23.648438 C 22.609375 23.699219 22.625 23.765625 22.675781 23.792969 C 22.800781 23.875 22.882812 23.765625 22.773438 23.660156 C 22.714844 23.601562 22.667969 23.601562 22.632812 23.648438 Z M 22.632812 23.648438 "/>
<path style=" stroke:none;fill-rule:nonzero;fill:rgb(0%,0%,0%);fill-opacity:1;" d="M 22.082031 23.957031 C 22.082031 24.035156 22.125 24.082031 22.175781 24.066406 C 22.226562 24.050781 22.265625 24 22.265625 23.957031 C 22.265625 23.917969 22.226562 23.867188 22.175781 23.851562 C 22.125 23.832031 22.082031 23.882812 22.082031 23.957031 Z M 22.082031 23.957031 "/>
<path style=" stroke:none;fill-rule:nonzero;fill:rgb(0%,0%,0%);fill-opacity:1;" d="M 22.464844 23.890625 C 22.375 23.984375 22.417969 24.082031 22.542969 24.082031 C 22.609375 24.082031 22.667969 24.050781 22.667969 24.007812 C 22.667969 23.898438 22.535156 23.824219 22.464844 23.890625 Z M 22.464844 23.890625 "/>
<path style=" stroke:none;fill-rule:nonzero;fill:rgb(0%,0%,0%);fill-opacity:1;" d="M 21.558594 24.226562 C 21.457031 24.316406 21.492188 24.417969 21.625 24.417969 C 21.691406 24.417969 21.75 24.359375 21.75 24.292969 C 21.75 24.160156 21.648438 24.125 21.558594 24.226562 Z M 21.558594 24.226562 "/>
<path style=" stroke:none;fill-rule:nonzero;fill:rgb(0%,0%,0%);fill-opacity:1;" d="M 21.917969 24.292969 C 21.917969 24.367188 21.957031 24.417969 22.007812 24.398438 C 22.058594 24.382812 22.101562 24.332031 22.101562 24.292969 C 22.101562 24.25 22.058594 24.199219 22.007812 24.183594 C 21.957031 24.167969 21.917969 24.214844 21.917969 24.292969 Z M 21.917969 24.292969 "/>
<path style=" stroke:none;fill-rule:nonzero;fill:rgb(0%,0%,0%);fill-opacity:1;" d="M 22.25 24.300781 C 22.25 24.375 22.292969 24.417969 22.351562 24.398438 C 22.5 24.351562 22.523438 24.167969 22.382812 24.167969 C 22.308594 24.167969 22.25 24.226562 22.25 24.300781 Z M 22.25 24.300781 "/>
<path style=" stroke:none;fill-rule:nonzero;fill:rgb(0%,0%,0%);fill-opacity:1;" d="M 22.632812 24.226562 C 22.542969 24.316406 22.582031 24.417969 22.707031 24.417969 C 22.773438 24.417969 22.832031 24.382812 22.832031 24.339844 C 22.832031 24.234375 22.699219 24.160156 22.632812 24.226562 Z M 22.632812 24.226562 "/>
<path style=" stroke:none;fill-rule:nonzero;fill:rgb(0%,0%,0%);fill-opacity:1;" d="M 22.082031 24.535156 C 22.082031 24.609375 22.140625 24.667969 22.214844 24.667969 C 22.292969 24.667969 22.332031 24.625 22.316406 24.566406 C 22.265625 24.417969 22.082031 24.390625 22.082031 24.535156 Z M 22.082031 24.535156 "/>
<path style=" stroke:none;fill-rule:nonzero;fill:rgb(0%,0%,0%);fill-opacity:1;" d="M 21.707031 24.574219 C 21.660156 24.667969 21.785156 24.765625 21.867188 24.691406 C 21.941406 24.617188 21.925781 24.5 21.839844 24.5 C 21.792969 24.5 21.742188 24.535156 21.707031 24.574219 Z M 21.707031 24.574219 "/>
<path style=" stroke:none;fill-rule:nonzero;fill:rgb(0%,0%,0%);fill-opacity:1;" d="M 22.433594 24.589844 C 22.449219 24.640625 22.5 24.675781 22.542969 24.675781 C 22.582031 24.675781 22.632812 24.640625 22.648438 24.589844 C 22.667969 24.542969 22.617188 24.5 22.542969 24.5 C 22.464844 24.5 22.417969 24.542969 22.433594 24.589844 Z M 22.433594 24.589844 "/>
<path style=" stroke:none;fill-rule:nonzero;fill:rgb(0%,0%,0%);fill-opacity:1;" d="M 21.917969 24.875 C 21.917969 24.949219 21.957031 25 22.007812 24.984375 C 22.058594 24.964844 22.101562 24.917969 22.101562 24.875 C 22.101562 24.832031 22.058594 24.785156 22.007812 24.765625 C 21.957031 24.75 21.917969 24.800781 21.917969 24.875 Z M 21.917969 24.875 "/>
<path style=" stroke:none;fill-rule:nonzero;fill:rgb(0%,0%,0%);fill-opacity:1;" d="M 22.214844 24.890625 C 22.191406 24.976562 22.140625 25.089844 22.117188 25.140625 C 22.089844 25.207031 22.125 25.25 22.207031 25.25 C 22.300781 25.25 22.332031 25.207031 22.300781 25.125 C 22.273438 25.050781 22.300781 25 22.382812 25 C 22.457031 25 22.5 24.957031 22.484375 24.898438 C 22.425781 24.742188 22.273438 24.734375 22.214844 24.890625 Z M 22.214844 24.890625 "/>
<path style=" stroke:none;fill-rule:nonzero;fill:rgb(0%,0%,0%);fill-opacity:1;" d="M 22.632812 24.808594 C 22.542969 24.898438 22.582031 25 22.707031 25 C 22.773438 25 22.832031 24.964844 22.832031 24.925781 C 22.832031 24.816406 22.699219 24.742188 22.632812 24.808594 Z M 22.632812 24.808594 "/>
<path style=" stroke:none;fill-rule:nonzero;fill:rgb(0%,0%,0%);fill-opacity:1;" d="M 21.515625 24.925781 C 21.535156 24.976562 21.582031 25.007812 21.625 25.007812 C 21.667969 25.007812 21.714844 24.976562 21.734375 24.925781 C 21.75 24.875 21.699219 24.832031 21.625 24.832031 C 21.550781 24.832031 21.5 24.875 21.515625 24.925781 Z M 21.515625 24.925781 "/>
<path style=" stroke:none;fill-rule:nonzero;fill:rgb(0%,0%,0%);fill-opacity:1;" d="M 21.707031 25.167969 C 21.683594 25.214844 21.714844 25.273438 21.785156 25.300781 C 21.859375 25.324219 21.917969 25.398438 21.917969 25.464844 C 21.917969 25.601562 22.050781 25.625 22.125 25.5 C 22.148438 25.449219 22.117188 25.390625 22.050781 25.367188 C 21.976562 25.339844 21.917969 25.265625 21.917969 25.199219 C 21.917969 25.066406 21.785156 25.042969 21.707031 25.167969 Z M 21.707031 25.167969 "/>
<path style=" stroke:none;fill-rule:nonzero;fill:rgb(0%,0%,0%);fill-opacity:1;" d="M 22.433594 25.183594 C 22.484375 25.332031 22.667969 25.359375 22.667969 25.214844 C 22.667969 25.140625 22.609375 25.082031 22.535156 25.082031 C 22.457031 25.082031 22.417969 25.125 22.433594 25.183594 Z M 22.433594 25.183594 "/>
<path style=" stroke:none;fill-rule:nonzero;fill:rgb(0%,0%,0%);fill-opacity:1;" d="M 22.25 25.449219 C 22.25 25.523438 22.308594 25.582031 22.382812 25.582031 C 22.457031 25.582031 22.5 25.542969 22.484375 25.484375 C 22.433594 25.332031 22.25 25.308594 22.25 25.449219 Z M 22.25 25.449219 "/>
<path style=" stroke:none;fill-rule:nonzero;fill:rgb(0%,0%,0%);fill-opacity:1;" d="M 21.515625 25.507812 C 21.535156 25.558594 21.582031 25.589844 21.625 25.589844 C 21.667969 25.589844 21.714844 25.558594 21.734375 25.507812 C 21.75 25.457031 21.699219 25.417969 21.625 25.417969 C 21.550781 25.417969 21.5 25.457031 21.515625 25.507812 Z M 21.515625 25.507812 "/>
<path style=" stroke:none;fill-rule:nonzero;fill:rgb(0%,0%,0%);fill-opacity:1;" d="M 22.601562 25.515625 C 22.648438 25.667969 22.832031 25.691406 22.832031 25.550781 C 22.832031 25.476562 22.773438 25.417969 22.699219 25.417969 C 22.625 25.417969 22.582031 25.457031 22.601562 25.515625 Z M 22.601562 25.515625 "/>
<path style=" stroke:none;fill-rule:nonzero;fill:rgb(0%,0%,0%);fill-opacity:1;" d="M 21.707031 25.75 C 21.683594 25.800781 21.714844 25.859375 21.785156 25.882812 C 21.859375 25.910156 21.917969 25.984375 21.917969 26.050781 C 21.917969 26.183594 22.050781 26.207031 22.125 26.082031 C 22.148438 26.035156 22.117188 25.976562 22.050781 25.949219 C 21.976562 25.925781 21.917969 25.851562 21.917969 25.785156 C 21.917969 25.648438 21.785156 25.625 21.707031 25.75 Z M 21.707031 25.75 "/>
<path style=" stroke:none;fill-rule:nonzero;fill:rgb(0%,0%,0%);fill-opacity:1;" d="M 22.101562 25.757812 C 22.117188 25.808594 22.167969 25.839844 22.207031 25.839844 C 22.25 25.839844 22.300781 25.808594 22.316406 25.757812 C 22.332031 25.707031 22.285156 25.667969 22.207031 25.667969 C 22.132812 25.667969 22.082031 25.707031 22.101562 25.757812 Z M 22.101562 25.757812 "/>
<path style=" stroke:none;fill-rule:nonzero;fill:rgb(0%,0%,0%);fill-opacity:1;" d="M 22.433594 25.765625 C 22.484375 25.917969 22.667969 25.941406 22.667969 25.800781 C 22.667969 25.726562 22.609375 25.667969 22.535156 25.667969 C 22.457031 25.667969 22.417969 25.707031 22.433594 25.765625 Z M 22.433594 25.765625 "/>
<path style=" stroke:none;fill-rule:nonzero;fill:rgb(0%,0%,0%);fill-opacity:1;" d="M 22.300781 25.976562 C 22.207031 26.066406 22.25 26.167969 22.375 26.167969 C 22.441406 26.167969 22.5 26.132812 22.5 26.089844 C 22.5 25.984375 22.367188 25.910156 22.300781 25.976562 Z M 22.300781 25.976562 "/>
<path style=" stroke:none;fill-rule:nonzero;fill:rgb(0%,0%,0%);fill-opacity:1;" d="M 21.542969 26.089844 C 21.507812 26.140625 21.5 26.199219 21.523438 26.226562 C 21.582031 26.285156 21.75 26.175781 21.75 26.074219 C 21.75 25.976562 21.609375 25.976562 21.542969 26.089844 Z M 21.542969 26.089844 "/>
<path style=" stroke:none;fill-rule:nonzero;fill:rgb(0%,0%,0%);fill-opacity:1;" d="M 22.601562 26.101562 C 22.648438 26.25 22.832031 26.273438 22.832031 26.132812 C 22.832031 26.058594 22.773438 26 22.699219 26 C 22.625 26 22.582031 26.042969 22.601562 26.101562 Z M 22.601562 26.101562 "/>
<path style=" stroke:none;fill-rule:nonzero;fill:rgb(0%,0%,0%);fill-opacity:1;" d="M 21.726562 26.300781 C 21.660156 26.367188 21.734375 26.5 21.839844 26.5 C 21.882812 26.5 21.917969 26.441406 21.917969 26.375 C 21.917969 26.25 21.816406 26.207031 21.726562 26.300781 Z M 21.726562 26.300781 "/>
<path style=" stroke:none;fill-rule:nonzero;fill:rgb(0%,0%,0%);fill-opacity:1;" d="M 22.050781 26.390625 C 22.023438 26.476562 21.976562 26.589844 21.949219 26.640625 C 21.925781 26.699219 21.941406 26.75 21.992188 26.75 C 22.042969 26.75 22.082031 26.699219 22.082031 26.632812 C 22.082031 26.566406 22.140625 26.492188 22.214844 26.464844 C 22.285156 26.441406 22.316406 26.382812 22.292969 26.332031 C 22.214844 26.207031 22.109375 26.234375 22.050781 26.390625 Z M 22.050781 26.390625 "/>
<path style=" stroke:none;fill-rule:nonzero;fill:rgb(0%,0%,0%);fill-opacity:1;" d="M 22.382812 26.390625 C 22.359375 26.476562 22.308594 26.589844 22.285156 26.640625 C 22.257812 26.707031 22.292969 26.75 22.375 26.75 C 22.464844 26.75 22.5 26.707031 22.464844 26.625 C 22.441406 26.550781 22.464844 26.5 22.542969 26.5 C 22.609375 26.5 22.667969 26.441406 22.667969 26.375 C 22.667969 26.199219 22.449219 26.214844 22.382812 26.390625 Z M 22.382812 26.390625 "/>
<path style=" stroke:none;fill-rule:nonzero;fill:rgb(0%,0%,0%);fill-opacity:1;" d="M 21.558594 26.640625 C 21.457031 26.734375 21.492188 26.832031 21.625 26.832031 C 21.691406 26.832031 21.75 26.773438 21.75 26.707031 C 21.75 26.574219 21.648438 26.542969 21.558594 26.640625 Z M 21.558594 26.640625 "/>
<path style=" stroke:none;fill-rule:nonzero;fill:rgb(0%,0%,0%);fill-opacity:1;" d="M 22.601562 26.683594 C 22.648438 26.832031 22.832031 26.859375 22.832031 26.714844 C 22.832031 26.640625 22.773438 26.582031 22.699219 26.582031 C 22.625 26.582031 22.582031 26.625 22.601562 26.683594 Z M 22.601562 26.683594 "/>
<path style=" stroke:none;fill-rule:nonzero;fill:rgb(0%,0%,0%);fill-opacity:1;" d="M 21.726562 26.890625 C 21.625 26.984375 21.660156 27.082031 21.792969 27.082031 C 21.859375 27.082031 21.917969 27.023438 21.917969 26.957031 C 21.917969 26.824219 21.816406 26.792969 21.726562 26.890625 Z M 21.726562 26.890625 "/>
<path style=" stroke:none;fill-rule:nonzero;fill:rgb(0%,0%,0%);fill-opacity:1;" d="M 22.082031 26.957031 C 22.082031 27.035156 22.125 27.082031 22.175781 27.066406 C 22.226562 27.050781 22.265625 27 22.265625 26.957031 C 22.265625 26.917969 22.226562 26.867188 22.175781 26.851562 C 22.125 26.832031 22.082031 26.882812 22.082031 26.957031 Z M 22.082031 26.957031 "/>
<path style=" stroke:none;fill-rule:nonzero;fill:rgb(0%,0%,0%);fill-opacity:1;" d="M 22.464844 26.890625 C 22.375 26.984375 22.417969 27.082031 22.542969 27.082031 C 22.609375 27.082031 22.667969 27.050781 22.667969 27.007812 C 22.667969 26.898438 22.535156 26.824219 22.464844 26.890625 Z M 22.464844 26.890625 "/>
<path style=" stroke:none;fill-rule:nonzero;fill:rgb(0%,0%,0%);fill-opacity:1;" d="M 21.558594 27.226562 C 21.457031 27.316406 21.492188 27.417969 21.625 27.417969 C 21.691406 27.417969 21.75 27.359375 21.75 27.292969 C 21.75 27.160156 21.648438 27.125 21.558594 27.226562 Z M 21.558594 27.226562 "/>
<path style=" stroke:none;fill-rule:nonzero;fill:rgb(0%,0%,0%);fill-opacity:1;" d="M 21.917969 27.285156 C 21.917969 27.351562 21.859375 27.417969 21.792969 27.449219 C 21.726562 27.476562 21.667969 27.535156 21.667969 27.582031 C 21.667969 27.625 21.726562 27.667969 21.792969 27.667969 C 21.859375 27.667969 21.917969 27.609375 21.917969 27.542969 C 21.917969 27.476562 21.957031 27.417969 22 27.417969 C 22.050781 27.417969 22.082031 27.476562 22.082031 27.542969 C 22.082031 27.683594 22.214844 27.707031 22.292969 27.582031 C 22.316406 27.535156 22.285156 27.476562 22.214844 27.449219 C 22.140625 27.425781 22.082031 27.351562 22.082031 27.285156 C 22.082031 27.214844 22.050781 27.167969 22 27.167969 C 21.957031 27.167969 21.917969 27.214844 21.917969 27.285156 Z M 21.917969 27.285156 "/>
<path style=" stroke:none;fill-rule:nonzero;fill:rgb(0%,0%,0%);fill-opacity:1;" d="M 22.265625 27.257812 C 22.285156 27.308594 22.332031 27.339844 22.375 27.339844 C 22.417969 27.339844 22.464844 27.308594 22.484375 27.257812 C 22.5 27.207031 22.449219 27.167969 22.375 27.167969 C 22.300781 27.167969 22.25 27.207031 22.265625 27.257812 Z M 22.265625 27.257812 "/>
<path style=" stroke:none;fill-rule:nonzero;fill:rgb(0%,0%,0%);fill-opacity:1;" d="M 22.640625 27.214844 C 22.574219 27.285156 22.648438 27.417969 22.757812 27.417969 C 22.800781 27.417969 22.832031 27.359375 22.832031 27.292969 C 22.832031 27.167969 22.734375 27.125 22.640625 27.214844 Z M 22.640625 27.214844 "/>
<path style=" stroke:none;fill-rule:nonzero;fill:rgb(0%,0%,0%);fill-opacity:1;" d="M 22.464844 27.476562 C 22.375 27.566406 22.417969 27.667969 22.542969 27.667969 C 22.609375 27.667969 22.667969 27.632812 22.667969 27.589844 C 22.667969 27.484375 22.535156 27.410156 22.464844 27.476562 Z M 22.464844 27.476562 "/>
<path style=" stroke:none;fill-rule:nonzero;fill:rgb(0%,0%,0%);fill-opacity:1;" d="M 21.558594 27.808594 C 21.457031 27.898438 21.492188 28 21.625 28 C 21.691406 28 21.75 27.941406 21.75 27.875 C 21.75 27.742188 21.648438 27.707031 21.558594 27.808594 Z M 21.558594 27.808594 "/>
<path style=" stroke:none;fill-rule:nonzero;fill:rgb(0%,0%,0%);fill-opacity:1;" d="M 21.917969 27.875 C 21.917969 27.949219 21.957031 28 22.007812 27.984375 C 22.058594 27.964844 22.101562 27.917969 22.101562 27.875 C 22.101562 27.832031 22.058594 27.785156 22.007812 27.765625 C 21.957031 27.75 21.917969 27.800781 21.917969 27.875 Z M 21.917969 27.875 "/>
<path style=" stroke:none;fill-rule:nonzero;fill:rgb(0%,0%,0%);fill-opacity:1;" d="M 22.265625 27.839844 C 22.285156 27.890625 22.332031 27.925781 22.375 27.925781 C 22.417969 27.925781 22.464844 27.890625 22.484375 27.839844 C 22.5 27.792969 22.449219 27.75 22.375 27.75 C 22.300781 27.75 22.25 27.792969 22.265625 27.839844 Z M 22.265625 27.839844 "/>
<path style=" stroke:none;fill-rule:nonzero;fill:rgb(0%,0%,0%);fill-opacity:1;" d="M 22.632812 27.816406 C 22.609375 27.867188 22.625 27.933594 22.675781 27.957031 C 22.800781 28.042969 22.882812 27.933594 22.773438 27.824219 C 22.714844 27.765625 22.667969 27.765625 22.632812 27.816406 Z M 22.632812 27.816406 "/>
<path style=" stroke:none;fill-rule:nonzero;fill:rgb(0%,0%,0%);fill-opacity:1;" d="M 22.082031 28.117188 C 22.082031 28.191406 22.140625 28.25 22.214844 28.25 C 22.292969 28.25 22.332031 28.207031 22.316406 28.148438 C 22.265625 28 22.082031 27.976562 22.082031 28.117188 Z M 22.082031 28.117188 "/>
<path style=" stroke:none;fill-rule:nonzero;fill:rgb(0%,0%,0%);fill-opacity:1;" d="M 21.683594 28.175781 C 21.699219 28.226562 21.75 28.257812 21.792969 28.257812 C 21.832031 28.257812 21.882812 28.226562 21.898438 28.175781 C 21.917969 28.125 21.867188 28.082031 21.792969 28.082031 C 21.714844 28.082031 21.667969 28.125 21.683594 28.175781 Z M 21.683594 28.175781 "/>
<path style=" stroke:none;fill-rule:nonzero;fill:rgb(0%,0%,0%);fill-opacity:1;" d="M 22.433594 28.175781 C 22.449219 28.226562 22.5 28.257812 22.542969 28.257812 C 22.582031 28.257812 22.632812 28.226562 22.648438 28.175781 C 22.667969 28.125 22.617188 28.082031 22.542969 28.082031 C 22.464844 28.082031 22.417969 28.125 22.433594 28.175781 Z M 22.433594 28.175781 "/>
<path style=" stroke:none;fill-rule:nonzero;fill:rgb(0%,0%,0%);fill-opacity:1;" d="M 21.550781 28.390625 C 21.457031 28.484375 21.5 28.582031 21.625 28.582031 C 21.691406 28.582031 21.75 28.550781 21.75 28.507812 C 21.75 28.398438 21.617188 28.324219 21.550781 28.390625 Z M 21.550781 28.390625 "/>
<path style=" stroke:none;fill-rule:nonzero;fill:rgb(0%,0%,0%);fill-opacity:1;" d="M 21.917969 28.457031 C 21.917969 28.535156 21.957031 28.582031 22.007812 28.566406 C 22.058594 28.550781 22.101562 28.5 22.101562 28.457031 C 22.101562 28.417969 22.058594 28.367188 22.007812 28.351562 C 21.957031 28.332031 21.917969 28.382812 21.917969 28.457031 Z M 21.917969 28.457031 "/>
<path style=" stroke:none;fill-rule:nonzero;fill:rgb(0%,0%,0%);fill-opacity:1;" d="M 22.214844 28.476562 C 22.191406 28.558594 22.140625 28.675781 22.117188 28.726562 C 22.089844 28.792969 22.125 28.832031 22.207031 28.832031 C 22.300781 28.832031 22.332031 28.792969 22.300781 28.707031 C 22.273438 28.632812 22.300781 28.582031 22.375 28.582031 C 22.441406 28.582031 22.5 28.523438 22.5 28.457031 C 22.5 28.285156 22.285156 28.300781 22.214844 28.476562 Z M 22.214844 28.476562 "/>
<path style=" stroke:none;fill-rule:nonzero;fill:rgb(0%,0%,0%);fill-opacity:1;" d="M 22.632812 28.390625 C 22.542969 28.484375 22.582031 28.582031 22.707031 28.582031 C 22.773438 28.582031 22.832031 28.550781 22.832031 28.507812 C 22.832031 28.398438 22.699219 28.324219 22.632812 28.390625 Z M 22.632812 28.390625 "/>
<path style=" stroke:none;fill-rule:nonzero;fill:rgb(0%,0%,0%);fill-opacity:1;" d="M 21.707031 28.742188 C 21.660156 28.832031 21.785156 28.933594 21.867188 28.859375 C 21.941406 28.785156 21.925781 28.667969 21.839844 28.667969 C 21.792969 28.667969 21.742188 28.699219 21.707031 28.742188 Z M 21.707031 28.742188 "/>
<path style=" stroke:none;fill-rule:nonzero;fill:rgb(0%,0%,0%);fill-opacity:1;" d="M 22.433594 28.757812 C 22.449219 28.808594 22.5 28.839844 22.542969 28.839844 C 22.582031 28.839844 22.632812 28.808594 22.648438 28.757812 C 22.667969 28.707031 22.617188 28.667969 22.542969 28.667969 C 22.464844 28.667969 22.417969 28.707031 22.433594 28.757812 Z M 22.433594 28.757812 "/>
<path style=" stroke:none;fill-rule:nonzero;fill:rgb(0%,0%,0%);fill-opacity:1;" d="M 17.691406 22.640625 C 17.292969 22.714844 17.25 22.910156 17.25 24.707031 C 17.25 25.625 17.285156 26.425781 17.324219 26.492188 C 17.375 26.574219 17.492188 26.582031 17.757812 26.542969 C 18.457031 26.425781 18.417969 26.558594 18.417969 24.457031 L 18.417969 22.582031 L 18.148438 22.589844 C 18 22.601562 17.792969 22.625 17.691406 22.640625 Z M 17.773438 23 C 17.589844 23.074219 17.582031 23.125 17.566406 24.183594 L 17.550781 25.292969 L 17.523438 24.214844 C 17.492188 23.117188 17.542969 22.910156 17.824219 22.925781 C 17.917969 22.925781 17.898438 22.949219 17.773438 23 Z M 17.773438 23 "/>
<path style=" stroke:none;fill-rule:nonzero;fill:rgb(0%,0%,0%);fill-opacity:1;" d="M 39.757812 24.050781 C 38.867188 24.167969 38.273438 24.285156 38.234375 24.351562 C 38.199219 24.410156 38.167969 26.382812 38.167969 28.726562 L 38.167969 33 L 44.917969 33 L 44.898438 28.773438 L 44.875 24.550781 L 43.375 24.191406 C 42.550781 24 41.726562 23.839844 41.542969 23.851562 C 41.359375 23.851562 40.558594 23.941406 39.757812 24.050781 Z M 43.226562 24.464844 L 44.667969 24.792969 L 44.667969 32.667969 L 44.042969 32.667969 L 44.042969 28.941406 C 44.042969 26.507812 44.015625 25.207031 43.957031 25.207031 C 43.898438 25.207031 43.875 26.507812 43.875 28.941406 L 43.875 32.667969 L 43.25 32.667969 L 43.25 28.917969 C 43.25 26.425781 43.226562 25.167969 43.167969 25.167969 C 43.109375 25.167969 43.082031 26.410156 43.101562 28.917969 L 43.125 32.667969 L 42.457031 32.667969 L 42.484375 28.941406 C 42.492188 26.492188 42.476562 25.191406 42.417969 25.132812 C 42.359375 25.074219 42.332031 26.265625 42.332031 28.859375 L 42.332031 32.667969 L 41.707031 32.667969 L 41.707031 28.941406 C 41.707031 26.507812 41.683594 25.207031 41.625 25.207031 C 41.566406 25.207031 41.542969 26.507812 41.542969 28.941406 L 41.542969 32.667969 L 40.917969 32.667969 L 40.917969 28.859375 C 40.917969 26.265625 40.890625 25.074219 40.832031 25.132812 C 40.773438 25.191406 40.757812 26.492188 40.765625 28.941406 L 40.792969 32.667969 L 40.125 32.667969 L 40.148438 28.917969 C 40.167969 26.410156 40.140625 25.167969 40.082031 25.167969 C 40.023438 25.167969 40 26.425781 40 28.917969 L 40 32.667969 L 39.375 32.667969 L 39.375 28.941406 C 39.375 26.507812 39.351562 25.207031 39.292969 25.207031 C 39.234375 25.207031 39.207031 26.507812 39.207031 28.941406 L 39.207031 32.667969 L 38.5 32.667969 L 38.5 24.507812 L 38.984375 24.449219 C 39.242188 24.417969 39.925781 24.324219 40.5 24.25 C 41.074219 24.167969 41.601562 24.109375 41.667969 24.117188 C 41.734375 24.132812 42.441406 24.285156 43.226562 24.464844 Z M 43.226562 24.464844 "/>
<path style=" stroke:none;fill-rule:nonzero;fill:rgb(0%,0%,0%);fill-opacity:1;" d="M 40.207031 24.574219 L 39.292969 24.714844 L 40.449219 24.773438 C 41.089844 24.808594 42.101562 24.832031 42.699219 24.824219 L 43.792969 24.816406 L 42.875 24.617188 C 41.808594 24.390625 41.457031 24.382812 40.207031 24.574219 Z M 40.207031 24.574219 "/>
<path style=" stroke:none;fill-rule:nonzero;fill:rgb(0%,0%,0%);fill-opacity:1;" d="M 38.75 28.875 C 38.75 31.890625 38.765625 32.332031 38.875 32.332031 C 38.984375 32.332031 39 31.890625 39 28.875 C 39 25.859375 38.984375 25.417969 38.875 25.417969 C 38.765625 25.417969 38.75 25.859375 38.75 28.875 Z M 38.75 28.875 "/>
<path style=" stroke:none;fill-rule:nonzero;fill:rgb(0%,0%,0%);fill-opacity:1;" d="M 39.582031 28.875 C 39.582031 31.125 39.609375 32.332031 39.667969 32.332031 C 39.726562 32.332031 39.75 31.125 39.75 28.875 C 39.75 26.625 39.726562 25.417969 39.667969 25.417969 C 39.609375 25.417969 39.582031 26.625 39.582031 28.875 Z M 39.582031 28.875 "/>
<path style=" stroke:none;fill-rule:nonzero;fill:rgb(0%,0%,0%);fill-opacity:1;" d="M 40.351562 28.832031 C 40.367188 31.042969 40.410156 32.25 40.457031 32.25 C 40.507812 32.25 40.550781 31.042969 40.566406 28.832031 C 40.582031 25.816406 40.566406 25.417969 40.457031 25.417969 C 40.351562 25.417969 40.332031 25.816406 40.351562 28.832031 Z M 40.351562 28.832031 "/>
<path style=" stroke:none;fill-rule:nonzero;fill:rgb(0%,0%,0%);fill-opacity:1;" d="M 41.167969 28.875 C 41.167969 31.125 41.191406 32.332031 41.25 32.332031 C 41.308594 32.332031 41.332031 31.125 41.332031 28.875 C 41.332031 26.625 41.308594 25.417969 41.25 25.417969 C 41.191406 25.417969 41.167969 26.625 41.167969 28.875 Z M 41.167969 28.875 "/>
<path style=" stroke:none;fill-rule:nonzero;fill:rgb(0%,0%,0%);fill-opacity:1;" d="M 41.917969 28.875 C 41.917969 31.125 41.941406 32.332031 42 32.332031 C 42.058594 32.332031 42.082031 31.125 42.082031 28.875 C 42.082031 26.625 42.058594 25.417969 42 25.417969 C 41.941406 25.417969 41.917969 26.625 41.917969 28.875 Z M 41.917969 28.875 "/>
<path style=" stroke:none;fill-rule:nonzero;fill:rgb(0%,0%,0%);fill-opacity:1;" d="M 42.683594 28.832031 C 42.699219 31.042969 42.742188 32.25 42.792969 32.25 C 42.839844 32.25 42.882812 31.042969 42.898438 28.832031 C 42.917969 25.816406 42.898438 25.417969 42.792969 25.417969 C 42.683594 25.417969 42.667969 25.816406 42.683594 28.832031 Z M 42.683594 28.832031 "/>
<path style=" stroke:none;fill-rule:nonzero;fill:rgb(0%,0%,0%);fill-opacity:1;" d="M 43.5 28.875 C 43.5 31.125 43.523438 32.332031 43.582031 32.332031 C 43.640625 32.332031 43.667969 31.125 43.667969 28.875 C 43.667969 26.625 43.640625 25.417969 43.582031 25.417969 C 43.523438 25.417969 43.5 26.625 43.5 28.875 Z M 43.5 28.875 "/>
<path style=" stroke:none;fill-rule:nonzero;fill:rgb(0%,0%,0%);fill-opacity:1;" d="M 44.25 28.875 C 44.25 31.125 44.273438 32.332031 44.332031 32.332031 C 44.390625 32.332031 44.417969 31.125 44.417969 28.875 C 44.417969 26.625 44.390625 25.417969 44.332031 25.417969 C 44.273438 25.417969 44.25 26.625 44.25 28.875 Z M 44.25 28.875 "/>
<path style=" stroke:none;fill-rule:nonzero;fill:rgb(0%,0%,0%);fill-opacity:1;" d="M 30.007812 29.773438 C 29.609375 29.925781 29.125 30.367188 28.867188 30.800781 C 28.566406 31.300781 28.648438 31.332031 29 30.851562 C 29.160156 30.640625 29.457031 30.351562 29.648438 30.207031 C 29.957031 29.992188 30.089844 29.957031 30.535156 29.957031 C 30.964844 29.957031 31.109375 30 31.382812 30.191406 C 31.558594 30.316406 31.792969 30.542969 31.898438 30.691406 C 32.007812 30.832031 32.140625 31.035156 32.207031 31.125 C 32.433594 31.441406 32.332031 31.117188 32.066406 30.667969 C 31.574219 29.851562 30.75 29.492188 30.007812 29.773438 Z M 30.007812 29.773438 "/>
<path style=" stroke:none;fill-rule:nonzero;fill:rgb(0%,0%,0%);fill-opacity:1;" d="M 34.601562 30.765625 C 34.464844 30.898438 34.476562 31.375 34.617188 31.492188 C 34.691406 31.558594 35.066406 31.582031 35.714844 31.566406 L 36.707031 31.542969 L 36.734375 31.175781 C 36.75 30.941406 36.726562 30.785156 36.648438 30.742188 C 36.476562 30.625 34.714844 30.648438 34.601562 30.765625 Z M 36.582031 31.125 C 36.582031 31.332031 36.582031 31.332031 35.859375 31.316406 C 35.265625 31.308594 35.214844 31.292969 35.582031 31.265625 L 36.042969 31.226562 L 35.582031 31.082031 L 35.125 30.933594 L 35.859375 30.925781 C 36.574219 30.917969 36.582031 30.917969 36.582031 31.125 Z M 36.582031 31.125 "/>
<path style=" stroke:none;fill-rule:nonzero;fill:rgb(0%,0%,0%);fill-opacity:1;" d="M 45.867188 30.949219 C 45.839844 31.015625 45.832031 31.191406 45.851562 31.351562 L 45.875 31.625 L 48.042969 31.625 L 48.042969 30.875 L 46.976562 30.851562 C 46.117188 30.832031 45.910156 30.851562 45.867188 30.949219 Z M 47.082031 31.191406 L 46.542969 31.367188 L 46.957031 31.425781 C 47.324219 31.464844 47.292969 31.476562 46.691406 31.484375 L 46 31.5 L 46 31 L 46.816406 31.007812 L 47.625 31.007812 Z M 47.082031 31.191406 "/>
<path style=" stroke:none;fill-rule:nonzero;fill:rgb(0%,0%,0%);fill-opacity:1;" d="M 17.734375 32.832031 C 17.367188 33.160156 17.609375 33.160156 18 32.832031 C 18.207031 32.660156 18.25 32.582031 18.148438 32.582031 C 18.066406 32.582031 17.882812 32.691406 17.734375 32.832031 Z M 17.734375 32.832031 "/>
<path style=" stroke:none;fill-rule:nonzero;fill:rgb(0%,0%,0%);fill-opacity:1;" d="M 18.191406 32.824219 C 17.816406 33.101562 17.523438 33.515625 17.449219 33.910156 C 17.367188 34.292969 17.542969 34.226562 17.699219 33.808594 C 17.859375 33.390625 18.308594 32.75 18.433594 32.75 C 18.484375 32.75 18.457031 32.824219 18.375 32.917969 C 18.226562 33.082031 18.234375 33.082031 18.757812 33.082031 C 19.226562 33.074219 19.324219 33.050781 19.582031 32.832031 L 19.867188 32.582031 L 19.316406 32.582031 C 19.007812 32.582031 18.734375 32.617188 18.707031 32.667969 C 18.683594 32.707031 18.617188 32.75 18.574219 32.75 C 18.523438 32.75 18.515625 32.707031 18.542969 32.667969 C 18.625 32.535156 18.550781 32.566406 18.191406 32.824219 Z M 18.191406 32.824219 "/>
<path style=" stroke:none;fill-rule:nonzero;fill:rgb(0%,0%,0%);fill-opacity:1;" d="M 20.109375 32.800781 C 19.957031 32.917969 19.832031 33.050781 19.832031 33.089844 C 19.832031 33.132812 20.082031 33.167969 20.398438 33.167969 C 20.917969 33.160156 20.984375 33.140625 21.285156 32.875 L 21.609375 32.582031 L 20.992188 32.582031 C 20.457031 32.582031 20.339844 32.617188 20.109375 32.800781 Z M 20.109375 32.800781 "/>
<path style=" stroke:none;fill-rule:nonzero;fill:rgb(0%,0%,0%);fill-opacity:1;" d="M 21.882812 32.660156 C 21.898438 32.683594 21.816406 32.800781 21.691406 32.933594 L 21.464844 33.167969 L 21.683594 33.167969 C 21.800781 33.167969 21.949219 33.109375 22.007812 33.023438 C 22.074219 32.949219 22.242188 32.816406 22.375 32.734375 L 22.625 32.574219 L 22.234375 32.601562 C 22.023438 32.617188 21.867188 32.640625 21.882812 32.660156 Z M 21.882812 32.660156 "/>
<path style=" stroke:none;fill-rule:nonzero;fill:rgb(0%,0%,0%);fill-opacity:1;" d="M 19.691406 32.875 C 19.242188 33.234375 18.773438 34.167969 19.042969 34.167969 C 19.109375 34.167969 19.199219 34.015625 19.257812 33.839844 C 19.308594 33.660156 19.5 33.324219 19.675781 33.089844 C 19.851562 32.859375 19.992188 32.667969 19.976562 32.667969 C 19.964844 32.667969 19.839844 32.757812 19.691406 32.875 Z M 19.691406 32.875 "/>
<path style=" stroke:none;fill-rule:nonzero;fill:rgb(0%,0%,0%);fill-opacity:1;" d="M 21.441406 32.875 C 20.992188 33.234375 20.523438 34.167969 20.792969 34.167969 C 20.859375 34.167969 20.949219 34.023438 21 33.839844 C 21.050781 33.660156 21.234375 33.316406 21.417969 33.089844 C 21.601562 32.859375 21.742188 32.667969 21.734375 32.667969 C 21.714844 32.667969 21.589844 32.757812 21.441406 32.875 Z M 21.441406 32.875 "/>
<path style=" stroke:none;fill-rule:nonzero;fill:rgb(0%,0%,0%);fill-opacity:1;" d="M 17 34.332031 C 17 34.382812 17.808594 34.417969 19.25 34.417969 C 20.691406 34.417969 21.5 34.382812 21.5 34.332031 C 21.5 34.285156 20.691406 34.25 19.25 34.25 C 17.808594 34.25 17 34.285156 17 34.332031 Z M 17 34.332031 "/>
<path style=" stroke:none;fill-rule:nonzero;fill:rgb(0%,0%,0%);fill-opacity:1;" d="M 17.382812 34.808594 C 17.476562 35.199219 17.726562 35.617188 18.015625 35.882812 C 18.507812 36.332031 18.632812 36.382812 18.273438 35.992188 C 17.890625 35.558594 17.714844 35.25 17.625 34.851562 C 17.589844 34.699219 17.515625 34.582031 17.449219 34.582031 C 17.359375 34.582031 17.339844 34.640625 17.382812 34.808594 Z M 17.382812 34.808594 "/>
<path style=" stroke:none;fill-rule:nonzero;fill:rgb(0%,0%,0%);fill-opacity:1;" d="M 18.964844 34.808594 C 19.101562 35.375 19.359375 35.742188 19.875 36.125 L 20.207031 36.367188 L 19.859375 35.992188 C 19.507812 35.625 19.175781 35.007812 19.167969 34.726562 C 19.167969 34.648438 19.109375 34.582031 19.042969 34.582031 C 18.941406 34.582031 18.925781 34.640625 18.964844 34.808594 Z M 18.964844 34.808594 "/>
<path style=" stroke:none;fill-rule:nonzero;fill:rgb(0%,0%,0%);fill-opacity:1;" d="M 20.667969 34.660156 C 20.667969 34.816406 20.875 35.308594 21.066406 35.601562 C 21.175781 35.765625 21.417969 36.007812 21.609375 36.125 L 21.957031 36.351562 L 21.609375 35.992188 C 21.257812 35.625 20.925781 35.007812 20.917969 34.726562 C 20.917969 34.648438 20.859375 34.582031 20.792969 34.582031 C 20.726562 34.582031 20.667969 34.617188 20.667969 34.660156 Z M 20.667969 34.660156 "/>
<path style=" stroke:none;fill-rule:nonzero;fill:rgb(0%,0%,0%);fill-opacity:1;" d="M 17.765625 36.042969 C 17.941406 36.199219 18.140625 36.332031 18.207031 36.332031 C 18.285156 36.332031 18.199219 36.214844 18.007812 36.042969 C 17.832031 35.882812 17.632812 35.75 17.574219 35.75 C 17.507812 35.75 17.601562 35.882812 17.765625 36.042969 Z M 17.765625 36.042969 "/>
<path style=" stroke:none;fill-rule:nonzero;fill:rgb(0%,0%,0%);fill-opacity:1;" d="M 18.5 36.042969 C 18.765625 36.316406 18.808594 36.332031 19.351562 36.332031 L 19.917969 36.332031 L 19.589844 36.042969 C 19.300781 35.773438 19.234375 35.75 18.742188 35.75 L 18.214844 35.75 Z M 18.5 36.042969 "/>
<path style=" stroke:none;fill-rule:nonzero;fill:rgb(0%,0%,0%);fill-opacity:1;" d="M 20.082031 36.042969 C 20.359375 36.324219 20.382812 36.332031 21.015625 36.332031 L 21.667969 36.332031 L 21.339844 36.042969 C 21.035156 35.765625 20.992188 35.75 20.410156 35.75 L 19.800781 35.75 Z M 20.082031 36.042969 "/>
<path style=" stroke:none;fill-rule:nonzero;fill:rgb(0%,0%,0%);fill-opacity:1;" d="M 30.476562 33.558594 C 30.359375 33.667969 30.425781 33.757812 30.601562 33.734375 C 30.824219 33.699219 30.898438 33.5 30.691406 33.5 C 30.601562 33.5 30.5 33.523438 30.476562 33.558594 Z M 30.476562 33.558594 "/>
<path style=" stroke:none;fill-rule:nonzero;fill:rgb(0%,0%,0%);fill-opacity:1;" d="M 31.441406 33.625 C 31.382812 33.785156 31.625 34.023438 31.792969 33.976562 C 31.933594 33.925781 31.882812 33.734375 31.691406 33.609375 C 31.515625 33.492188 31.5 33.492188 31.441406 33.625 Z M 31.441406 33.625 "/>
<path style=" stroke:none;fill-rule:nonzero;fill:rgb(0%,0%,0%);fill-opacity:1;" d="M 29.625 34.175781 C 29.589844 34.265625 29.589844 34.367188 29.625 34.398438 C 29.683594 34.457031 29.832031 34.257812 29.832031 34.101562 C 29.832031 33.933594 29.683594 33.984375 29.625 34.175781 Z M 29.625 34.175781 "/>
<path style=" stroke:none;fill-rule:nonzero;fill:rgb(0%,0%,0%);fill-opacity:1;" d="M 30.207031 34.148438 C 30.066406 34.234375 29.851562 34.507812 29.707031 34.757812 C 29.492188 35.160156 29.457031 35.292969 29.457031 35.890625 C 29.457031 36.257812 29.433594 36.550781 29.398438 36.523438 C 29.308594 36.476562 29.324219 36.765625 29.417969 36.917969 C 29.484375 37.015625 29.5 37 29.5 36.839844 C 29.5 36.648438 29.507812 36.660156 29.691406 36.917969 C 29.984375 37.351562 30.300781 37.542969 30.707031 37.542969 C 31.285156 37.542969 31.742188 37.101562 31.875 36.417969 L 31.925781 36.125 L 31.742188 36.484375 C 31.535156 36.890625 31.066406 37.25 30.742188 37.25 C 30.191406 37.25 29.667969 36.574219 29.601562 35.792969 C 29.550781 35.214844 29.691406 34.816406 30.050781 34.5 C 30.589844 34.023438 31.324219 34.242188 31.734375 35 C 31.933594 35.375 31.933594 35.375 31.875 35.082031 C 31.691406 34.191406 30.890625 33.742188 30.207031 34.148438 Z M 30.207031 34.148438 "/>
<path style=" stroke:none;fill-rule:nonzero;fill:rgb(0%,0%,0%);fill-opacity:1;" d="M 32.207031 34.5 C 32.117188 34.640625 32.242188 35 32.382812 35 C 32.449219 35 32.523438 34.941406 32.558594 34.867188 C 32.648438 34.625 32.332031 34.292969 32.207031 34.5 Z M 32.207031 34.5 "/>
<path style=" stroke:none;fill-rule:nonzero;fill:rgb(0%,0%,0%);fill-opacity:1;" d="M 29.167969 35.417969 C 29.167969 35.550781 29.207031 35.667969 29.25 35.667969 C 29.300781 35.667969 29.332031 35.550781 29.332031 35.417969 C 29.332031 35.273438 29.300781 35.167969 29.25 35.167969 C 29.207031 35.167969 29.167969 35.273438 29.167969 35.417969 Z M 29.167969 35.417969 "/>
<path style=" stroke:none;fill-rule:nonzero;fill:rgb(0%,0%,0%);fill-opacity:1;" d="M 32.015625 37.101562 C 31.890625 37.226562 31.890625 37.390625 32 37.457031 C 32.125 37.535156 32.332031 37.339844 32.332031 37.160156 C 32.332031 36.984375 32.167969 36.949219 32.015625 37.101562 Z M 32.015625 37.101562 "/>
<path style=" stroke:none;fill-rule:nonzero;fill:rgb(0%,0%,0%);fill-opacity:1;" d="M 30 37.574219 C 30 37.683594 30.242188 37.867188 30.308594 37.808594 C 30.367188 37.742188 30.183594 37.5 30.074219 37.5 C 30.035156 37.5 30 37.535156 30 37.574219 Z M 30 37.574219 "/>
<path style=" stroke:none;fill-rule:nonzero;fill:rgb(0%,0%,0%);fill-opacity:1;" d="M 31.058594 37.800781 C 30.964844 37.898438 31.082031 38 31.300781 38 C 31.433594 38 31.5 37.957031 31.484375 37.890625 C 31.441406 37.785156 31.148438 37.707031 31.058594 37.800781 Z M 31.058594 37.800781 "/>
<path style=" stroke:none;fill-rule:nonzero;fill:rgb(0%,0%,0%);fill-opacity:1;" d="M 39.464844 34.058594 C 35.265625 34.074219 33.523438 34.109375 33.441406 34.175781 C 33.359375 34.25 33.332031 34.558594 33.339844 35.449219 L 33.351562 36.625 L 33.5 35.792969 C 33.691406 34.792969 33.765625 34.601562 34.015625 34.550781 C 34.125 34.523438 37.101562 34.410156 40.625 34.292969 C 47.175781 34.074219 48.375 34.023438 46.457031 34.035156 C 45.867188 34.035156 42.714844 34.050781 39.464844 34.058594 Z M 39.464844 34.058594 "/>
<path style=" stroke:none;fill-rule:nonzero;fill:rgb(0%,0%,0%);fill-opacity:1;" d="M 35.773438 35.808594 C 35.632812 35.859375 35.632812 36.765625 35.765625 36.898438 C 35.824219 36.957031 36.089844 37 36.382812 37 C 37.023438 37 37.167969 36.882812 37.167969 36.375 C 37.167969 35.867188 37.023438 35.75 36.390625 35.757812 C 36.109375 35.757812 35.824219 35.785156 35.773438 35.808594 Z M 36.917969 36.375 L 36.917969 36.839844 L 36.398438 36.816406 L 35.875 36.792969 L 35.851562 36.351562 L 35.824219 35.917969 L 36.917969 35.917969 Z M 36.917969 36.375 "/>
<path style=" stroke:none;fill-rule:nonzero;fill:rgb(0%,0%,0%);fill-opacity:1;" d="M 36 36.390625 L 36.007812 36.707031 L 36.140625 36.492188 C 36.214844 36.367188 36.398438 36.234375 36.574219 36.191406 L 36.875 36.109375 L 36.441406 36.089844 L 36 36.082031 Z M 36 36.390625 "/>
<path style=" stroke:none;fill-rule:nonzero;fill:rgb(0%,0%,0%);fill-opacity:1;" d="M 46.25 35.808594 C 46.058594 35.882812 46 36.007812 46 36.339844 C 46 36.757812 46.140625 36.851562 46.765625 36.816406 L 47.292969 36.792969 L 47.316406 36.375 C 47.339844 36.058594 47.308594 35.941406 47.199219 35.859375 C 47.050781 35.75 46.484375 35.726562 46.25 35.808594 Z M 47.207031 36.332031 L 47.207031 36.707031 L 46.207031 36.707031 L 46.160156 35.910156 L 47.207031 35.957031 Z M 47.207031 36.332031 "/>
<path style=" stroke:none;fill-rule:nonzero;fill:rgb(0%,0%,0%);fill-opacity:1;" d="M 46.582031 36.140625 C 46.648438 36.167969 46.792969 36.285156 46.890625 36.398438 L 47.082031 36.625 L 47.082031 36.351562 C 47.082031 36.089844 47.066406 36.082031 46.773438 36.089844 C 46.601562 36.089844 46.515625 36.117188 46.582031 36.140625 Z M 46.582031 36.140625 "/>
<path style=" stroke:none;fill-rule:nonzero;fill:rgb(0%,0%,0%);fill-opacity:1;" d="M 34.957031 38.300781 C 34.25 39.382812 33.226562 39.957031 31.792969 40.082031 C 31.058594 40.140625 31.066406 40.140625 32.25 40.148438 C 33.792969 40.167969 41.082031 40.023438 42.667969 39.949219 L 43.867188 39.890625 L 43.324219 39.757812 C 42.609375 39.574219 41.925781 39.160156 41.367188 38.558594 L 40.925781 38.082031 L 35.101562 38.082031 Z M 34.957031 38.300781 "/>
</g>
</svg>
